<?xml version="1.0" standalone="no"?>
<!DOCTYPE svg PUBLIC "-//W3C//DTD SVG 20010904//EN"
 "http://www.w3.org/TR/2001/REC-SVG-20010904/DTD/svg10.dtd">
<svg version="1.0" xmlns="http://www.w3.org/2000/svg"
 width="1000.000000pt" height="1000.000000pt" viewBox="0 0 1000.000000 1000.000000"
 preserveAspectRatio="xMidYMid meet">
<metadata>
Created by potrace 1.11, written by Peter Selinger 2001-2013
</metadata>
<g transform="translate(0.000000,1000.000000) scale(0.100000,-0.100000)"
fill="#000000" stroke="none">
<path d="M3527 7793 c-58 -98 -1350 -2336 -1369 -2373 -10 -19 -23 -42 -28
-50 -5 -8 -138 -240 -296 -515 -158 -275 -290 -502 -294 -505 -3 -3 -12 -20
-19 -37 -8 -18 -16 -33 -20 -33 -4 0 -13 -16 -20 -35 -7 -19 -17 -35 -22 -35
-5 0 -9 -6 -9 -14 0 -8 -6 -21 -14 -28 -7 -8 -16 -24 -20 -36 -4 -12 -13 -28
-19 -35 -15 -16 20 43 -364 -621 -178 -307 -323 -562 -323 -567 0 -5 605 -8
1452 -7 l1453 3 61 105 c296 509 855 1472 1048 1808 131 226 241 412 245 412
3 0 144 -240 314 -533 169 -292 473 -815 675 -1162 l368 -630 1452 -3 c799 -1
1452 0 1452 3 0 10 -723 1259 -737 1273 -7 7 -16 24 -19 38 -3 13 -10 24 -14
24 -5 0 -14 16 -20 35 -6 19 -16 35 -21 35 -5 0 -11 11 -15 25 -3 14 -10 25
-14 25 -5 0 -14 16 -21 35 -7 19 -16 35 -20 35 -4 0 -13 16 -20 35 -7 19 -16
35 -20 35 -4 0 -13 15 -20 33 -7 17 -19 38 -26 45 -7 7 -13 19 -13 27 0 7 -4
15 -8 17 -7 3 -272 457 -314 538 -55 106 -1548 2685 -1556 2688 -4 1 -321
-540 -702 -1202 -382 -663 -697 -1205 -701 -1206 -3 0 -318 542 -700 1205
-381 662 -697 1204 -701 1205 -4 0 -22 -26 -41 -57z"/>
</g>
</svg>
