<svg xmlns="http://www.w3.org/2000/svg" viewBox="0 0 201.97 202.7298"><g fill-rule="evenodd" clip-rule="evenodd"><path fill="#33abe6" d="M168.2872 25.8319c-9.6236-8.6106-21.02-15.4485-33.5561-19.8804-2.2793 4.8118-10.0035 5.6982-14.5621 7.2177-.5065 7.471 2.1526 11.903-3.5456 10.6367l-3.7988-1.2663c-3.2923-.7598-3.5455.5065-6.458-1.5195-.8863-.6332-3.039-3.1657-4.6852-4.6852-9.497-9.1172 6.3314-3.039.38-11.2698-2.2794-3.1657-3.5456.5065-5.825-4.6852h.2533c-24.439 1.013-46.5987 10.6366-63.44 26.0851.3798-.2532.7597-.5065 1.013-.6331 13.4224-3.5456 16.2082-8.1041 21.6532-7.471 2.2792 9.497-10.51 7.0911-9.1172 17.7278 2.7858 1.7728 8.484 2.1526 12.2828 2.6591 2.5326 5.445 1.2663 10.1302 8.484 8.1042 0-1.6462-.1266-4.5586 0-5.6982.7598-7.2178.6332-.6332 1.8994-5.5716 1.013-3.9255-1.8994-4.3053 1.6462-10.0036 8.1041-.8863 7.5976 1.5196 10.2568 5.8249 3.5455 0 4.052-1.393 6.9645-2.5326 3.039 5.1918 3.4189 6.2048 8.8639 10.0036 4.5585 3.1657 1.8994-.6332 3.6721 3.4189-7.8508 8.9905-14.6887-2.6592-21.5265 8.6106l6.458.2533c.1266 0 .5064.2532.7597.3799.5065 6.3313-2.9124 2.6591-8.3574 8.1041-15.4485 15.0686-6.5846 6.5846-11.0165 14.6887-.7598 1.393-3.039 2.9124-4.6852 4.432-6.8379 6.458.6331 5.1917-.8864 12.4094-8.2308-6.8378-1.8994-11.903-24.3124-3.6722-.2533 7.7243-1.7728 15.4485 7.2177 15.4485 4.432-2.7858 1.393-4.432 7.0911-4.9384.5066 4.5585-.8863 4.8118-1.6461 8.8639l6.458 1.3929c4.432 16.4615.8864 4.9384 14.4354 12.536 4.6852 2.6592 8.484 1.1397 12.0296 3.419 2.7858 1.7727 3.7988 4.8118 8.2308 6.3313 7.471 2.5325 4.6852 1.013 10.2567 5.1917-1.2662 3.9254-1.3929 1.6462-1.7727 4.8118 5.445.2533 4.8118-.2532 10.8899 1.393 2.2793.633 3.6722.7597 5.8248 1.2662 3.7988.8864 2.7858.8864 5.9515 2.1526l.7598 1.393c2.2792 4.5585-.38 5.5715-3.5456 8.7372-6.458 6.458 2.9124 9.877-11.0165 13.549-5.6983 1.5196-3.6722 1.6462-6.7113 5.6983-4.3053 5.9515-9.6236 4.9385-16.0816 8.484-4.1787 2.2793-3.6722 3.039-4.8118 7.471-2.5326 9.497-2.406 7.0911-5.5716 6.9645-3.419-6.0781 2.2793-6.7112-3.7988-16.7148l2.026-1.5195v-16.4615c-1.7728-1.7728.2533-.2533-2.7858-2.1527-5.9515-3.4189-8.484-4.3053-14.4355-15.1952-3.9254-7.2177 1.2663-8.484 2.7858-11.523 1.7728-3.5456 0-3.1657 1.2663-6.9645 1.013-3.1657 2.406-2.1527 3.419-5.6982-2.2794-1.6462-3.1657-1.1397-5.9515-3.1657-1.8994-1.5195-2.7858-2.7858-5.3184-4.8118-4.3053-3.419-6.9644-6.3314-13.1692-7.471-5.5716-1.013-9.7502-3.2923-11.3964-9.1172-1.2663-4.432-4.5586-10.6366-8.6106-12.7893 1.013 4.432 4.432 8.1041 3.5455 10.51-5.6982-4.1787-4.8118-11.0165-8.7372-19.7538-2.7858-6.2047 1.2662-14.1822-.1267-23.9325 0-.2532.1267-.5065.2533-.7597v-.1267C5.065 65.0863 0 82.6874 0 101.5548c0 27.858 11.2698 53.1833 29.6307 71.5443 18.2343 18.2342 43.5597 29.6307 71.5442 29.6307 27.858 0 53.1834-11.2698 71.5443-29.6307 4.6852-4.6852 8.9905-9.877 12.6627-15.4485l-.5065.7597c-2.026-4.6852-6.5846-13.929-6.5846-19.3739 0-5.6982 5.9514-9.1171 3.039-15.5751l-3.039-3.9255 1.8994-7.2177-6.3314-4.052c-4.052 1.7727-3.6722 4.052-10.2568 3.7988-6.8378-.2533-5.1917-2.7858-8.8639-4.6852l.1267-1.6462c-2.6592-1.2663-6.2047-3.5455-6.3314-7.471 0-1.3929.5065-11.6497 1.013-13.2958 2.6592-8.3574 6.0781-7.3444 8.3574-13.0426 1.393-3.5455-1.013-3.9254 3.2923-4.6852l7.5976-2.2793 8.6107-.3799c5.8248 14.0556 5.6982 6.8379 14.6887 11.0166 3.1657 1.3929 3.7988 1.6461 7.0911 1.8994-3.419-13.6757-9.497-26.3384-17.8544-37.1017 3.7988 4.9385 7.2177 10.3834 10.0035 15.955-2.2792 3.419.7598 3.6722-4.1787 6.9645-1.5195-4.432-2.1526-8.7373-7.471-10.51.6332 6.3313 10.3835 6.8378 1.6462 12.7893 0-.1267 3.6722-9.6237-9.6236-11.6497-4.8119 3.6722-3.7989 6.8378-7.2178 9.2438-7.5976.633-9.2437-4.9385-7.3443-11.5231 3.7988-.3799 8.6106 4.6852 8.2307-1.8994-.1266-2.406.1266-1.6462-4.6852-4.432 3.419-2.5325 1.393.5066 4.6852-2.7857 1.013-.1267 4.1787-1.6462 4.8118-2.406 2.7858-3.2923.1267.1267.7598-2.9124.5065-2.9124-.8864-1.013.8864-2.7858.6331 1.6462 1.6461 6.5846 5.3183 6.9645 5.1917.6332 2.6592 0 4.052-1.3929-1.8993-2.5325-3.9254-4.8118-6.078-7.091.5065.5064.8864 1.013 1.3929 1.5194.1266.2533.2532.38.3799.6332l-.7598 2.1526c-3.1657-2.5325-1.2663-2.4059-5.1917-4.3053-3.6722-1.7728-3.6722-1.3929-5.445-4.9384l2.026-2.1527c.38-.1266.6332 0 .7598 0zM62.5537 13.2959c5.3184-.5066 8.7373-2.6592 14.1822 2.026l-1.8994 5.9514c3.1657 1.5196 5.0651 2.406 8.484 3.7988 1.6462-2.1526 1.1397 0-.8863-3.2923l4.052-.2532c-1.2663-1.7728-1.6461-2.2793-2.6592-3.5456.6332 0 3.7989.1267 3.7989.1267 6.078-1.013 2.026.633 4.5585-2.406-3.039-.5065-6.3313.2533-8.484-1.7727-3.1657-3.039 2.2793-5.3184-14.8153-5.5716-5.3184-.2533-6.5846-.5065-6.3314 4.9384zM97.6294.1265h-.8864zm60.0212 31.4035c2.4059 4.432 2.5325 4.8118 2.026 10.2568l4.5586-.5065.7597-3.9254c-6.3313-7.0912-3.2923-6.9645-8.3574-9.1172zm27.9845 124.8542c.5065-.7598 1.013-1.5195 1.393-2.2793-.5066.7598-.8865 1.5195-1.393 2.2793zm1.8994-3.1657c.38-.7597.8864-1.3929 1.2663-2.1526-.3799.7597-.7598 1.5195-1.2663 2.1526zm1.8994-3.1657c.38-.7597.7598-1.3928 1.1397-2.1526-.38.7598-.7598 1.3929-1.1397 2.1526zm1.7728-3.2923c.2533-.5065.5065-.8863.7598-1.3929-.2533.38-.5065.8864-.7598 1.393z"/><path fill="#96c831" d="M73.1904 179.0505l-2.026 1.5195c6.078 10.1302.3798 10.6367 3.7988 16.7148 3.039.1266 3.039 2.5325 5.5715-6.9645 1.1397-4.432.6332-5.1917 4.8119-7.471 6.3313-3.5455 11.7763-2.6591 16.0816-8.484 3.039-4.052.8864-4.1787 6.7112-5.6982 13.929-3.6722 4.5586-7.0911 11.0166-13.549 3.1656-3.1657 5.8248-4.0521 3.5455-8.7373l-.7597-1.393c-3.1657-1.1396-2.1527-1.2662-5.9515-2.1526-2.2793-.5065-3.5456-.6331-5.8248-1.2663-6.0781-1.6461-5.445-1.1396-10.89-1.3929.38-3.2923.5065-.8863 1.7728-4.8118-5.5716-4.1787-2.7858-2.5325-10.2568-5.1917-4.432-1.5195-5.3183-4.5586-8.2307-6.3313-3.6722-2.2793-7.471-.7598-12.0296-3.419-13.549-7.7242-10.0035 3.9255-14.4355-12.536l-6.458-1.393c.7598-4.052 2.1527-4.3052 1.6462-8.8638-5.6982.5065-2.6591 2.1526-7.091 4.9384-8.864 0-7.471-7.8508-7.2178-15.4485 22.413-8.3573 16.0816-3.1656 24.3123 3.6722 1.5196-7.2177-5.9514-5.9514.8864-12.4094 1.6462-1.5195 3.9255-3.039 4.6852-4.432 4.5586-8.104-4.3053.5066 11.0166-14.6887 5.445-5.3183 8.8639-1.6461 8.3574-8.1041l-.7598-.3799-6.458-.2532c6.8379-11.1432 13.6757.3798 21.5266-8.6107-1.7728-4.052.8864-.1266-3.6722-3.4189-5.445-3.7988-5.8248-4.6852-8.8639-10.0035-2.7858 1.1396-3.2923 2.5325-6.9644 2.5325-2.7858-4.1787-2.1527-6.7112-10.2568-5.8248-3.5456 5.6982-.7598 6.078-1.6462 10.0035-1.1396 4.8118-1.013-1.6462-1.8994 5.5716-.1266 1.1396.1266 4.052 0 5.6982-7.2177 2.026-5.9515-2.6592-8.484-8.1041-3.7988-.5065-9.497-.8864-12.2828-2.6592-1.2663-10.6367 11.523-8.2308 9.1171-17.7278-5.445-.6331-8.2307 4.052-21.6532 7.471-.2532.1266-.6331.3799-1.013.6332-1.2663 1.1396-2.5325 2.2792-3.6722 3.5455-5.9514 5.9515-11.2698 12.6627-15.575 20.007-.1267.2533-.1267.5066-.2533.7598 1.5195 9.7503-2.6592 17.7278.1266 23.9325 3.9254 8.6107 3.039 15.5751 8.7372 19.7538.8864-2.2793-2.5325-6.078-3.5455-10.51 4.052 2.1527 7.3444 8.484 8.6106 12.7893 1.6462 5.8249 5.8249 8.1041 11.3964 9.1172 6.2048 1.1396 8.9906 4.052 13.1693 7.471 2.5325 2.026 3.4189 3.4189 5.3183 4.8118 2.6592 2.026 3.5455 1.5195 5.9515 3.1656-1.013 3.5456-2.406 2.5326-3.419 5.6983-1.2662 3.7988.5065 3.4189-1.2662 6.9644-1.5196 3.1657-6.7113 4.3054-2.7858 11.5231 5.9514 10.89 8.484 11.7763 14.4354 15.1952 3.1657 1.7728 1.1397.38 2.7858 2.1527zM96.3631.2533c2.1527 5.1917 3.5456 1.5195 5.8249 4.6852 5.9514 8.2307-10.0036 2.1526-.38 11.2698 1.6462 1.5195 3.7989 4.1786 4.6853 4.6851 3.039 2.026 3.1656.8864 6.458 1.5196l3.7988 1.2662c5.5715 1.2663 3.039-3.1656 3.5455-10.6366 4.5586-1.5195 12.2828-2.406 14.5621-7.2178C124.221 2.026 112.8247 0 101.0483 0c-1.6461.1266-3.1657.1266-4.6852.2533zM165.2482 42.0402c-3.2923 3.2923-1.2663.2532-4.6852 2.7857 4.8118 2.6592 4.432 1.8994 4.6852 4.432.3799 6.5846-4.432 1.5195-8.2308 1.8994-1.8994 6.5846-.2532 12.1562 7.3444 11.523 3.419-2.4059 2.406-5.445 7.2177-9.2437 13.4225 2.026 9.6237 11.523 9.6237 11.6497 8.7372-5.8249-1.013-6.3314-1.6462-12.7894 5.3184 1.7728 5.9515 6.0781 7.471 10.51 5.0651-3.2922 1.8994-3.5455 4.1787-6.9644-2.9124-5.6982-6.3313-11.1432-10.2568-16.2083-1.3929 1.2663 1.1397 2.026-4.052 1.393-3.6722-.5066-4.6852-5.3184-5.3184-6.9645-1.7727 1.7727-.3799-.1267-.8864 2.7857-.633 3.039 2.026-.3798-.7597 2.9125-.5065.6331-3.6722 2.1526-4.6852 2.2793z"/><path fill="#96c831" d="M160.9429 66.859c-4.1787.6332-1.8994 1.013-3.2923 4.5586-2.2793 5.6982-5.6982 4.8118-8.3574 13.0426-.5065 1.6461-1.013 11.903-1.013 13.2958.1266 4.052 3.6722 6.2047 6.3313 7.471l-.1266 1.6462c3.6722 1.7727 2.026 4.4319 8.8639 4.6852 6.5846.2532 6.2047-2.026 10.2568-3.7989l6.3313 4.0521-1.8994 7.2177 3.039 3.9255c2.9125 6.458-3.039 9.8769-3.039 15.575 0 5.3184 4.432 14.6888 6.5846 19.374 11.0166-16.2082 17.3479-35.7088 17.3479-56.7289 0-8.3573-1.013-16.4615-2.9124-24.3123-3.419-.38-4.052-.5065-7.0911-1.8994-8.9905-4.1787-8.9905 3.039-14.6888-11.0166l-8.6106.3799zM62.5537 13.2958c5.3184-.5065 8.7373-2.6591 14.1822 2.026l-1.8994 5.9515c3.1657 1.5196 5.0651 2.406 8.484 3.7988 1.6462-2.1526 1.1397 0-.8863-3.2923l4.052-.2532c-1.2663-1.7728-1.6461-2.2793-2.6592-3.5456.6332 0 3.7989.1267 3.7989.1267 6.078-1.013 2.026.633 4.5585-2.406-3.039-.5065-6.3313.2533-8.484-1.7727-3.1657-3.039 2.2793-5.3184-14.8153-5.5716-5.3184-.2533-6.5846-.5065-6.3314 4.9384zM157.6506 31.5301c2.4059 4.432 2.5325 4.8118 2.026 10.2568l4.5586-.5065.7597-3.9254c-6.3313-7.0912-3.2923-6.9645-8.3574-9.1172z"/><path fill="#93ca2c" d="M176.7712 34.6958c-.1266-.2533-.2532-.5065-.3798-.6331-1.2663-1.393-2.6592-2.9125-4.0521-4.3054-1.2663-1.2662-2.6592-2.6591-4.052-3.9254-.1267 0-.38-.1266-.8865-.3799l-2.026 2.1527c1.7728 3.4189 1.7728 3.1657 5.445 4.9384 3.9254 1.8994 1.8994 1.6462 5.1917 4.3053z"/></g></svg>