<svg xmlns="http://www.w3.org/2000/svg" viewBox="0 0 201.97 202.7298"><g fill-rule="evenodd" clip-rule="evenodd"><path fill="#b1764b" d="M134.9728 196.8881c-6.2139 2.205-20.8465 5.0112-20.646 5.0112-6.0135-2.205-13.0291-3.8085-19.0426-6.4143-7.8174-3.2072-13.2295-6.2139-20.4456-9.6215-4.2094-2.0045-41.4926-18.0403-45.5016-13.6304-5.2116-5.4121-15.234-20.2452-15.234-19.8443 35.4792.2004 89.1991 39.889 120.8698 44.4993z"/><path fill="#e85e28" d="M179.4721 165.4179c-7.4165 9.0201-16.4367 16.8375-26.459 23.0514-4.4099-3.2071-16.4367-4.6103-22.2497-6.6148-15.0335-4.8107-48.9091-21.2474-61.7378-30.2675-10.0223-3.0067-20.2452-9.2206-30.6684-13.6304-10.4233-4.6103-20.0448-9.6215-31.6707-12.6282-2.205 1.804-2.205-.401-3.0067 2.205-1.804-7.0157-3.2072-23.252-3.2072-23.0515l7.4166 2.2049c43.898 10.2228 52.3167 13.6304 94.4107 31.8711 9.6215 4.2094 20.0447 10.4233 29.4658 14.0313 5.2116 1.804 45.301 15.8354 47.7064 12.8287z"/><path fill="#723218" d="M201.9222 110.0944c-.8018 10.2228-3.2071 20.0447-6.8152 29.2653-44.9002-10.0224-85.9919-13.8309-129.2885-37.4837C55.5957 96.464 11.898 80.0273 3.8802 74.8156c0 0 1.2027-4.2093 2.0045-6.4143 7.0157 1.804 25.4568 3.8085 35.6796 7.4166 20.0448 6.8152 86.9942 38.8868 115.2573 32.272C131.966 92.6555 82.8565 74.8156 52.3885 64.9937 44.17 62.388 17.711 58.78 11.0963 56.3745c.2005-.6014 7.0157-11.8264 5.0112-8.6192.401 2.8062-1.804-2.4054 15.635-.401 8.6191 1.0023 15.6348 2.4054 23.0514 4.4099 14.2317 3.8085 103.8317 37.2832 114.4554 43.2966 3.8085.401 28.8644 12.2273 32.673 15.0336z"/><path fill="#e85e28" d="M190.8976 55.3723c2.4054 4.6102 4.4099 9.421 6.2139 14.4322l-12.4277-1.6036c-2.8063-2.4054.6013-.6014-3.8085-1.804-17.2385-5.0112-28.4636-1.6036-71.9606-19.243-5.6126-2.205-52.5173-22.851-61.5374-30.8689C59.2037 8.8685 72.8341 3.6568 87.2663 1.6524c8.8197 8.2183 37.2832 23.8532 47.506 29.4657 10.4233 6.0134 40.8913 23.8533 56.1253 24.2542z"/><path fill="#cb7547" d="M5.8847 68.4013c1.4031-4.2094 3.2072-8.2183 5.0112-12.0268 6.8152 2.4054 33.2742 6.0134 41.2921 8.6192C82.656 75.0161 131.9661 92.856 156.6211 108.09c-28.263 6.6148-95.2125-25.4568-115.2572-32.272-10.2228-3.4076-28.664-5.6125-35.4792-7.4166z"/><path fill="#723218" d="M114.1263 201.8993c-4.2094.6013-8.6193.8018-13.029.8018-28.2632 0-53.9204-11.626-72.1612-30.468 4.009-4.4099 41.4927 11.626 45.5016 13.6304 7.2161 3.4076 12.6282 6.4143 20.4456 9.6215 6.4144 2.4053 13.43 4.2094 19.243 6.4143z"/><path fill="#edd2ac" d="M153.013 188.4693c-5.6124 3.4076-11.8263 6.2139-18.0402 8.6193-31.4702-4.6103-85.1901-44.299-121.0702-44.4994-4.4098-7.8174-8.0179-16.0358-10.2228-24.8554.8018-2.6059.8018-.401 3.0067-2.205 11.8264 3.0067 21.2474 8.018 31.6707 12.6282 10.2228 4.6103 20.4456 10.6237 30.6684 13.6304 12.8287 9.2206 46.9047 25.4569 61.7378 30.2676 6.0134 1.804 18.0403 3.2072 22.2497 6.4143z"/><path fill="#cb7547" d="M194.9066 139.3597c-3.8085 9.6215-9.2206 18.4412-15.635 26.2586-12.6281-.2004-36.2809-8.8197-47.7064-13.2295-9.421-3.4076-19.8443-9.822-29.4658-14.0313-42.094-18.2407-50.3122-21.4479-94.4107-31.8712l-7.4165-2.2049v-.8018-1.804c0-9.2206 1.2027-18.2407 3.608-26.86 8.018 5.2117 51.7155 21.448 61.9383 27.0604 43.0962 23.4524 84.3883 27.4613 129.088 37.4837z"/><path fill="#edd2ac" d="M197.1115 69.8045c3.4076 10.0223 5.2116 20.8465 5.2116 31.8711 0 2.8063-.2004 5.6125-.4009 8.2183-8.8196-6.4143-21.047-9.2205-30.6684-14.833l-2.0045-.401C158.6256 88.6465 69.2261 55.172 54.794 51.3633c-7.4166-2.0045-14.6327-3.4076-23.0515-4.4098-17.439-1.804-15.234 3.2071-15.6349.4009 8.018-12.6282 18.842-23.4524 31.4703-31.4703 9.2205 8.2184 55.9248 28.664 61.5373 30.869 43.497 17.6393 54.7221 14.0312 71.9606 19.2429 4.4099 1.2026 1.0022-.6014 3.8085 1.804z"/><path fill="#b1764b" d="M101.2977.6501c39.0872 0 72.9628 22.2497 89.8004 54.5217-15.234-.2004-45.702-18.2407-56.1253-24.0537-10.2228-5.813-38.6863-21.2474-47.506-29.4657C91.8766 1.051 96.4869.65 101.2977.65z"/></g></svg>