<svg xmlns="http://www.w3.org/2000/svg" viewBox="0 0 201.97 202.7298"><g fill-rule="evenodd" clip-rule="evenodd"><path fill="#c23232" d="M5.374 70.022c1.4556.364 3.639.7279 6.7323 1.2737 9.0978 1.6376 25.8377 4.7309 38.5745 6.3685 12.555 1.4556 21.1069 1.2737 24.746 0 3.6391-1.2737 2.7293-3.6391-4.367-7.2782-7.0962-3.4572-20.379-8.006-31.4782-11.0993-11.0993-3.0933-19.8332-4.7309-24.928-5.6407-.7278-.182-1.2736-.182-1.8195-.3639 4.5489-8.006 10.0076-15.4662 16.376-22.0166-.182.7278-.182 1.2737.364 1.8196 1.2736 1.2737 4.9127 2.0015 9.2796 0 4.367-2.1835 9.2798-7.0963 14.5565-11.0993 5.0947-4.003 10.3714-6.9143 15.2842-8.9158 4.7309-2.0015 9.0978-2.9113 12.373-2.3654 3.2752.7278 5.8226 2.9112 6.3685 6.5503.7278 3.6392-.546 8.552 0 12.555.5458 3.821 2.7293 6.5504 8.7338 8.7338 6.1865 2.1835 16.194 4.003 27.1114 4.367 10.9173.3639 22.5625-.364 31.8422-1.6376 9.2797-1.0918 15.8301-2.5474 19.4692-3.6391 1.2737-.364 2.0015-.7279 2.5474-1.0918v-.182l.182.182c14.1925 16.558 22.9264 37.4829 24.018 60.7732l-.7277-.182c-4.7309-1.4556-12.555-4.5489-24.928-7.6421-12.3729-3.2752-29.1128-6.5504-43.6692-8.188-14.5565-1.6376-27.1114-1.2737-31.2964.7278-4.185 2.0015.182 6.0045 12.555 10.0076 12.373 4.185 32.9339 8.5519 45.4888 12.373 12.373 3.821 16.74 6.9142 19.4692 10.3714 2.7294 3.4571 4.003 7.2782 1.0918 8.9158-2.9113 1.6376-10.1895.9098-19.1053-1.8195-8.9159-2.7294-19.2873-7.4602-30.0227-10.5535-10.7354-3.0932-21.6527-4.5489-33.4798-4.9128-11.8271-.5458-24.564 0-35.4813-.9097-10.9174-.7279-20.197-2.7294-30.5686-5.6407-10.1895-2.9112-21.4707-6.7323-27.1113-7.642-1.0918-.182-1.8196-.182-2.5474-.182.364-7.6422 2.0015-15.1024 4.367-22.0167zm145.7463-55.1325c-.182.182-.364.182-.364.364-2.0014 1.4556-5.4586 3.2751-10.5533 4.003-5.0948.7278-11.8272.3639-17.6497-1.4557-5.8226-1.8195-10.5535-5.2767-14.1926-8.37-3.639-2.9112-6.0045-5.6406-7.642-7.0962-.364-.364-.728-.7278-1.0918-.9098h-.364.7279c17.8316-.182 35.4813 4.367 51.1295 13.4647zm37.4828 135.9208c-4.5489 8.188-10.1895 15.6482-16.7399 22.1985-18.1955 18.1956-43.3054 29.4768-71.1446 29.4768-22.7444 0-43.6693-7.4601-60.5912-20.197.9098.182 1.8196 0 2.5474-.5459 1.4557-1.2737 2.5474-4.003 4.003-6.5504 1.6376-2.5474 3.6391-4.7308 7.2782-5.6406 3.4572-1.0917 8.37-1.0917 12.555-1.8196 4.185-.7278 7.6421-2.1834 8.006-4.7308.364-2.7293-2.1834-6.5504-5.0947-9.6436-2.9113-3.2752-6.1865-5.8226-7.8241-8.734-1.6376-2.9112-1.6376-6.1864-.5459-8.3699 1.0917-2.1834 3.2752-3.2752 7.2782-1.6376s9.8256 6.3685 16.0121 10.1895c6.1865 4.003 12.7369 7.2783 20.0151 9.6437 7.2782 2.3654 15.1023 4.003 19.8332 3.6391 4.7308-.364 6.3684-2.9113 6.5504-5.0948.182-2.1834-.9098-4.185-4.549-5.2767-3.639-1.0917-9.6436-1.4556-14.5564-2.5473-4.9128-1.0918-8.9158-2.9113-11.2812-5.6407-2.3654-2.7293-3.0932-6.3684-2.7293-9.2797.3639-2.9113 2.0015-5.4587 6.1865-6.5504 4.185-1.0917 11.0992-.9098 20.561.9098 9.4616 2.0015 21.6526 5.8226 31.6602 10.0075 10.0075 4.185 17.8316 8.7339 23.2903 11.8271 4.7308 2.3655 7.6421 3.8211 9.2797 4.367zM6.6476 137.1636s-.182 0 0 0c-2.5474-6.9143-4.367-14.0106-5.4586-21.4707 2.9112.7278 6.9143.5458 11.827.182 8.0061-.364 18.1956-.7279 25.8377 1.2736 7.6422 2.0015 12.373 6.5504 13.1008 10.1895.7279 3.6391-2.9113 6.3685-12.009 7.6422-9.0978 1.2736-23.6542 1.0917-31.1144 1.8195-.9098.182-1.4557.182-2.1835.364z"/><path fill="#e06261" d="M150.7564 15.0715c-2.0015 1.4556-5.4587 3.2752-10.5534 4.003-5.0948.7278-11.8272.364-17.6497-1.4556-5.8226-1.8196-10.5535-5.2767-14.1926-8.37-3.639-2.9113-6.0045-5.6406-7.642-7.0963-.364-.3639-.728-.7278-1.0918-.9097-27.2933.3639-52.0393 11.4632-69.871 29.4768l-.3638.3639c-.364.7278-.182 1.4556.182 2.0015 1.2736 1.2737 4.9127 2.0015 9.2796 0 4.367-2.1835 9.2798-7.0963 14.5565-11.0993 5.0947-4.003 10.3714-6.9143 15.2842-8.9158 4.7309-2.0015 9.0978-2.9113 12.373-2.3654 3.2752.7278 5.8226 2.9112 6.3685 6.5503.7278 3.6392-.546 8.552 0 12.555.5458 3.821 2.7293 6.5504 8.7338 8.7338 6.1865 2.1835 16.194 4.003 27.1114 4.367 10.9173.3639 22.5625-.364 31.8422-1.6376 9.2797-1.0918 15.8301-2.5474 19.4692-3.6391 1.2737-.364 2.0015-.7279 2.5474-1.0918-1.6376-2.0015-3.4571-3.821-5.2767-5.6406-6.1865-6.1865-13.1008-11.4632-20.743-16.012-.1819 0-.1819.1819-.3638.1819zM14.4717 53.646c5.0948.9098 14.0106 2.5474 24.928 5.6407 11.0992 3.0932 24.382 7.6421 31.4782 11.0993 7.0963 3.4571 8.188 6.0045 4.367 7.2782-3.6392 1.2737-12.191 1.4556-24.746 0-12.555-1.4557-29.4768-4.7309-38.5746-6.3685-3.0932-.5458-5.0947-.9097-6.7323-1.2737 2.0015-5.8225 4.367-11.4632 7.2782-16.7399.7278.182 1.4556.182 2.0015.364zM200.6122 96.9515c-4.7309-1.4557-12.555-4.549-24.928-7.6422-12.3729-3.2752-29.1128-6.5504-43.6692-8.188-14.5565-1.6376-27.1114-1.2737-31.2964.7278-4.185 2.0016.182 6.0046 12.555 10.0076 12.373 4.185 32.9339 8.552 45.4888 12.373 12.373 3.821 16.74 6.9143 19.4692 10.3714 2.7294 3.4572 4.003 7.2783 1.0918 8.9159-2.9113 1.6376-10.1895.9097-19.1053-1.8196-8.9159-2.7293-19.2873-7.4602-30.0227-10.5534-10.7354-3.0933-21.6527-4.549-33.4798-4.9128-11.8271-.5459-24.564 0-35.4813-.9098-10.9174-.7278-20.197-2.7293-30.5686-5.6406-10.1895-2.9113-21.4707-6.7324-27.1113-7.6421-1.0918-.182-1.8196-.182-2.5474-.182-.364 3.2752-.5459 6.7324-.5459 10.1895 0 4.7308.364 9.2797.9098 13.8286 2.9113.7278 6.9143.5459 11.8271.182 8.006-.364 18.1956-.7278 25.8377 1.2737 7.6421 2.0015 12.373 6.5504 13.1008 10.1895.7278 3.639-2.9113 6.3684-12.009 7.6421-9.0978 1.2737-23.6543 1.0917-31.1145 1.8196-.7278 0-1.4556.182-2.0015.182h-.182v.1819c5.0948 13.4647 12.919 25.6557 23.1084 35.6632 3.2752 3.2752 6.9143 6.3685 10.5534 9.2798.9098.182 1.8196 0 2.5474-.5459 1.4557-1.2737 2.5474-4.003 4.003-6.5504 1.6376-2.5474 3.6391-4.7308 7.2783-5.6406 3.4571-1.0917 8.37-1.0917 12.5549-1.8196 4.185-.7278 7.6421-2.1834 8.006-4.7308.364-2.7293-2.1834-6.5504-5.0947-9.6436-2.9113-3.2752-6.1865-5.8226-7.8241-8.734-1.6376-2.9112-1.6376-6.1864-.5459-8.3699 1.0918-2.1834 3.2752-3.2752 7.2782-1.6376s9.8256 6.3685 16.0121 10.1895c6.1865 4.003 12.737 7.2783 20.0151 9.6437 7.2782 2.3654 15.1023 4.003 19.8332 3.6391 4.7308-.364 6.3684-2.9113 6.5504-5.0948.182-2.1834-.9098-4.185-4.549-5.2767-3.639-1.0917-9.6436-1.4556-14.5564-2.5473-4.9127-1.0918-8.9158-2.9113-11.2812-5.6407-2.3654-2.7293-3.0932-6.3684-2.7293-9.2797.3639-2.9113 2.0015-5.4587 6.1865-6.5504 4.185-1.0917 11.0992-.9098 20.561.9098 9.4616 2.0015 21.6526 5.8226 31.6602 10.0075 10.0075 4.185 17.8316 8.7339 23.2903 11.8271 4.9128 2.7294 7.824 4.185 9.4617 4.7309 2.9113-5.2767 5.4586-10.7354 7.4602-16.558l1.0917-3.2752c2.7293-9.2797 4.367-18.9233 4.367-29.1128 0-1.6376 0-3.0933-.182-4.7309-.9098-.3639-1.0918-.5458-1.2737-.5458z"/></g></svg>