<svg xmlns="http://www.w3.org/2000/svg" viewBox="0 0 201.97 202.7298"><g fill-rule="evenodd" clip-rule="evenodd"><path fill="#e3d3c3" d="M101.1086 1.2776c55.5152 0 100.587 45.0717 100.587 100.587 0 55.5152-45.0718 100.587-100.587 100.587-55.5153 0-100.587-45.0718-100.587-100.587 0-55.5153 45.0717-100.587 100.587-100.587zm42.3235 158.026c3.8476 0 7.1455 3.298 7.1455 7.1455 0 3.8476-3.298 7.1456-7.1455 7.1456-3.8476 0-7.1456-3.298-7.1456-7.1456s3.298-7.1455 7.1456-7.1455zm34.9031-9.619c3.0231 0 5.2217 2.4735 5.2217 5.2218 0 3.023-2.4734 5.2217-5.2217 5.2217-3.023 0-5.2217-2.4735-5.2217-5.2217 0-2.7483 2.4734-5.2218 5.2217-5.2218zm-1.9238-50.5683c2.4735-.2748 4.6721 3.0231 5.2218 7.6952.5496 4.3972-.8245 8.5196-3.298 8.7945-2.4734.2748-4.672-3.0231-5.2217-7.6952-.2748-4.672 1.0993-8.5197 3.298-8.7945zm-46.7207 10.4435c2.1986 0 3.8476 1.649 3.8476 3.8475 0 2.1987-1.649 3.8476-3.8476 3.8476s-3.8476-1.649-3.8476-3.8476 1.649-3.8475 3.8476-3.8475zM96.1617 59.541c1.3741-3.298 6.0462-4.6721 10.4434-2.7483 4.3973 1.649 6.8707 5.7714 5.4966 9.3441-1.3742 3.298-6.0462 4.6721-10.4435 2.7483-4.3972-1.9238-6.8707-6.0462-5.4965-9.3441zm-25.559 28.0324c3.023 0 5.2217 2.4735 5.2217 5.2218 0 3.023-2.4735 5.2217-5.2217 5.2217-3.0231 0-5.2218-2.4735-5.2218-5.2217 0-3.0232 2.1987-5.2218 5.2218-5.2218zm17.3141 43.6977c4.947-1.649 10.9931 2.4734 12.917 9.0693 2.1986 6.5959 0 13.4666-5.2218 15.1155-4.9469 1.649-10.9931-2.4734-12.9169-9.0693-2.1986-6.8707.2748-13.7414 5.2217-15.1155zm-49.7438 28.582c1.3741-3.2979 5.7714-4.3972 10.1686-2.7482 4.3973 1.649 6.5959 5.7714 5.2217 9.0693-1.3741 3.298-5.7713 4.3973-10.1686 2.7483-4.1224-1.649-6.5959-5.7714-5.2217-9.0693zM12.339 116.4306c2.1987 0 3.8476 1.649 3.8476 3.8475 0 2.1987-1.649 3.8476-3.8476 3.8476s-3.8475-1.649-3.8475-3.8476 1.9238-3.8475 3.8475-3.8475zm9.0694-53.5915c5.4965 0 10.1686 4.3973 10.1686 10.1686 0 5.4966-4.3972 10.1687-10.1686 10.1687-5.4966 0-10.1687-4.3973-10.1687-10.1687 0-5.7713 4.3973-10.1686 10.1687-10.1686zM47.792 35.631c-1.9238-2.4734-.8245-6.5958 2.4734-9.3441 3.298-2.7483 7.6952-2.7483 9.619-.2748 1.9238 2.4734.8245 6.5958-2.4735 9.3441-3.5727 2.7483-7.6952 2.7483-9.619.2748zm69.2566-15.6652c2.1986 0 3.8476 1.649 3.8476 3.8476 0 2.1987-1.649 3.8476-3.8476 3.8476s-3.8476-1.649-3.8476-3.8476c0-1.9238 1.649-3.8476 3.8476-3.8476zm33.8038 21.1618c4.947-3.298 12.0925-.5497 16.4897 5.7714 4.1224 6.321 3.8476 14.291-1.0993 17.3141-4.947 3.298-12.0924.5497-16.4897-5.7713-4.3972-6.321-3.8476-14.0163 1.0993-17.3142z"/><path fill="#cbb8a7" d="M117.0486 19.9658c2.1986 0 3.8476 1.649 3.8476 3.8476 0 2.1987-1.649 3.8476-3.8476 3.8476s-3.8476-1.649-3.8476-3.8476c0-1.9238 1.649-3.8476 3.8476-3.8476zM150.8524 41.1276c4.947-3.298 12.0925-.5497 16.4897 5.7714 4.1224 6.321 3.8476 14.291-1.0993 17.3141-4.947 3.298-12.0924.5497-16.4897-5.7713-4.3972-6.321-3.8476-14.0163 1.0993-17.3142zM96.1617 59.541c1.3741-3.2979 6.0462-4.672 10.4434-2.7482 4.3973 1.649 6.8707 5.7714 5.4966 9.3441-1.3742 3.298-6.0462 4.6721-10.4435 2.7483-4.3972-1.9238-6.8707-6.0462-5.4965-9.3441zM12.3391 116.4305c2.1987 0 3.8476 1.649 3.8476 3.8475 0 2.1987-1.649 3.8476-3.8476 3.8476s-3.8475-1.649-3.8475-3.8476 1.9238-3.8475 3.8475-3.8475zM70.6027 87.5735c3.023 0 5.2217 2.4735 5.2217 5.2218 0 3.023-2.4735 5.2217-5.2217 5.2217-3.0231 0-5.2218-2.4735-5.2218-5.2217 0-3.0232 2.1987-5.2218 5.2218-5.2218zM21.4085 62.839c5.4965 0 10.1686 4.3973 10.1686 10.1686 0 5.4966-4.3972 10.1687-10.1686 10.1687-5.4966 0-10.1687-4.3973-10.1687-10.1687 0-5.7713 4.3973-10.1686 10.1687-10.1686zM47.792 35.631c-1.9238-2.4734-.8245-6.5958 2.4734-9.3441 3.298-2.7483 7.6952-2.7483 9.619-.2748 1.9238 2.4734.8245 6.5958-2.4735 9.3441-3.5727 2.7483-7.6952 2.7483-9.619.2748zM38.173 159.8533c1.3741-3.298 5.7714-4.3973 10.1686-2.7483 4.3973 1.649 6.5959 5.7714 5.2217 9.0693-1.3741 3.298-5.7713 4.3973-10.1686 2.7483-4.1224-1.649-6.5959-5.7714-5.2217-9.0693zM143.432 159.3036c3.8477 0 7.1456 3.298 7.1456 7.1455 0 3.8476-3.298 7.1456-7.1455 7.1456-3.8476 0-7.1456-3.298-7.1456-7.1456s3.298-7.1455 7.1456-7.1455zM178.3352 149.6846c3.0231 0 5.2217 2.4735 5.2217 5.2218 0 3.023-2.4734 5.2217-5.2217 5.2217-3.023 0-5.2217-2.4735-5.2217-5.2217 0-2.7483 2.1986-5.2218 5.2217-5.2218zM87.9168 131.2712c4.947-1.649 10.9931 2.4734 12.917 9.0693 2.1986 6.5959 0 13.4666-5.2218 15.1155-4.9469 1.649-10.9931-2.4734-12.9169-9.0693-2.1986-6.8707.2748-13.7414 5.2217-15.1155zM129.6907 109.5598c2.1986 0 3.8476 1.649 3.8476 3.8475 0 2.1987-1.649 3.8476-3.8476 3.8476s-3.8476-1.649-3.8476-3.8476 1.649-3.8475 3.8476-3.8475zM176.4114 99.1163c2.4735-.2748 4.6721 3.0231 5.2218 7.6952.5496 4.3972-.8245 8.5196-3.298 8.7945-2.4734.2748-4.672-3.0231-5.2217-7.6952-.2748-4.672 1.0993-8.5197 3.298-8.7945z"/></g></svg>