<svg xmlns="http://www.w3.org/2000/svg" viewBox="0 0 201.97 202.7298"><g fill-rule="evenodd" clip-rule="evenodd"><path fill="#5293e3" d="M100.8943 1.5504c20.8214 0 40.2995 6.3808 56.2514 17.2952-6.5487 0-28.2097 8.2278-38.4525 15.616-6.5486 4.7017-11.0823 8.5637-9.739 14.6087 6.045.6716 12.2577-.168 17.4631-1.6792l16.4556-5.5412 29.0492-10.7465c8.5637 8.5636 15.616 18.6385 20.4856 29.8888-9.5711 8.8995-56.923 28.2096-81.4385 24.8513-24.8514 1.6792-62.4642 18.9744-83.9573 30.2247-6.5487 3.3582-12.4257 8.2278-23.0043 12.4256-2.015-7.5561-3.3583-15.616-3.5262-23.8438.8396-.6717 2.6866-1.6792 6.2128-3.5262l9.907-5.0375c11.2503-6.0449 60.4492-26.3626 66.662-31.232 4.03-3.1905 3.0225-2.015 3.6942-6.7167l-2.3508-1.1754c-13.2653-3.694-49.5348 7.7241-61.7926 12.0899-9.4032 3.3583-14.6085 6.8845-18.3027 5.0374 11.922-41.9786 50.5423-72.539 96.383-72.539zM28.691 171.48c-1.847-1.847-3.5262-3.862-5.2053-5.877.1679-5.877-.168-1.0074 4.03-3.0224l17.631-4.1979c18.1347-6.2128 55.4118-24.5155 66.3262-19.8139 3.3583 10.5786-6.8845 14.2727-9.739 24.1797-5.2054 5.2053-22.8364 10.7465-33.415 11.4182-7.0524.5037-15.1123.5037-22.1648-.168-5.3732-.5037-14.1048-4.1978-16.7914-2.3507l-1.5112-1.1754c.3358.5037.5037.8395.8395 1.0074zm160.0226-22.3326c3.5262-6.3807 8.3957-14.7765 8.2278-23.8438l-.168-4.5337c-.8395.1679-1.3432.1679-1.3432.6716l-25.691 16.9594c-7.724 4.3658-24.0117 12.7615-25.523 20.1497 11.922 7.3883 35.43-4.3657 44.4974-9.4032z"/><path fill="#336aab" d="M157.1457 18.6777c5.3732 3.5262 10.2427 7.724 14.7764 12.2578L142.873 41.682l-16.4556 5.5412c-5.0374 1.6791-11.4182 2.3508-17.4631 1.6791-1.3433-6.2128 3.3583-9.907 9.739-14.6085 10.2428-7.3883 32.0717-15.616 38.4525-15.616zm35.43 42.1466c5.709 12.5936 8.7315 26.3626 8.7315 41.139 0 55.4118-45.0011 100.413-100.413 100.413-28.7133 0-54.74-12.09-73.0427-31.568l1.5112 1.1754c2.8545-1.847 11.4182 2.015 16.7914 2.3508 7.0525.6717 15.1124.6717 22.1648.168 10.4107-.6717 28.2096-6.213 33.415-11.4183 2.8545-9.739 12.9294-13.4331 9.739-24.1797-10.9144-4.7016-48.1915 13.6011-66.3262 19.814l-17.631 4.1978c-4.198 2.015-3.8621-3.0225-4.03 3.0225-8.8995-10.7466-15.616-23.508-19.3102-37.277 10.5786-4.3658 16.4556-9.0674 23.0043-12.4257 21.493-11.2503 59.106-28.5455 83.9573-30.2246 24.3476 2.8545 71.6995-16.2878 81.4385-25.1872zM.6492 104.65v-2.8546c0-9.5711 1.3433-18.9743 3.862-27.7059 3.6942 1.847 8.8995-1.847 18.3027-5.0374 12.2578-4.1979 48.6952-15.784 61.9605-12.0899l2.3508 1.1754c-.6717 4.7016.3358 3.5262-3.6941 6.7166-6.2129 4.8695-55.4118 25.0193-66.6621 31.2321l-9.907 5.0375c-3.5262 1.847-5.3732 2.6866-6.2128 3.5262zm188.0643 44.4973c3.5262-6.3807 8.3957-14.7765 8.2278-23.8438l-.168-4.5337c-.8395.1679-1.3432.1679-1.3432.6716l-25.691 16.9594c-7.724 4.3658-24.0117 12.7615-25.523 20.1497 11.922 7.3883 35.43-4.3657 44.4974-9.4032z"/></g></svg>