<svg xmlns="http://www.w3.org/2000/svg" viewBox="0 0 201.97 202.7298"><g fill-rule="evenodd" clip-rule="evenodd"><path fill="#d4cf97" d="M87.665 157.522c4.772-.3729 9.917-.8948 13.9434-1.4168 4.4738-.522 7.531-1.0439 10.961-1.715 3.4299-.671 7.3072-1.4913 10.6626-2.2369 3.3554-.8202 6.1142-1.5658 9.6188-2.6097l.2982-.0746c-9.4696 5.9651-20.7288 9.4696-32.7336 9.4696-4.3247-.0745-8.5749-.522-12.7505-1.4167z"/><path fill="#eac39a" d="M152.4611 130.2315c-.8948.149-1.8641.4473-2.9826.7456-2.908.8202-6.7107 2.0132-10.8118 3.1317-4.101 1.1185-8.4257 2.237-11.9302 3.0571-3.43.8202-6.0397 1.4167-9.1714 2.0133-3.1317.671-6.8599 1.3421-11.1846 2.0132-4.2502.671-9.0968 1.4167-13.4215 2.0132-4.3248.5965-8.202 1.044-12.2286 1.4167-4.0264.3729-8.1274.7457-10.9609.8948-2.8334.1491-4.3993.2237-6.9344.3728h-.1492c-2.0132-1.5658-3.9519-3.2808-5.7414-5.0703-.671-.6711-1.3422-1.3422-2.0132-2.0878 2.386-.1492 5.2195-.2983 7.9038-.4474 4.623-.2983 8.9477-.5965 13.7943-1.044 4.8467-.4473 10.2899-1.0438 17.0006-2.0131 6.7108-1.044 14.6146-2.4607 22.2947-4.0265 7.6801-1.5658 14.9874-3.2063 20.9525-4.6975 5.9651-1.4913 10.5881-2.908 13.7944-3.8028 3.1317-.8948 4.8466-1.3422 6.6362-1.9387-1.3422 3.3554-2.9826 6.4871-4.8467 9.4697z"/><path fill="#fff3d3" d="M41.5097 115.0204c-.5965-2.0878-1.1184-4.2502-1.5658-6.4125h.1491v-.0746c0-.0746 0-.1491-.2237-1.2676-.1491-.8947-.3728-2.5352-.522-3.7282.9694.0746 1.9387.1491 3.0572.2237 2.908.1491 6.1143.2237 10.7372.0746 3.5791-.0746 7.9784-.3728 12.5268-.6711h.0746c1.4167-.0746 2.908-.2237 4.3247-.2983 5.7414-.4473 11.3337-1.0439 17.2989-1.864 5.965-.8203 12.303-1.8642 18.7155-3.1318 6.4126-1.3421 12.8996-2.9825 18.641-4.4738 5.7415-1.5658 10.7373-3.0571 14.9129-4.3993 4.1756-1.3421 7.6055-2.6097 10.439-3.7282.5219-.2237.9693-.3728 1.4912-.5965 2.4607-.9693 4.5484-1.8641 7.0836-3.2808.2983-.2237.6711-.3728.9694-.5965l.0745.2982c0 .0746.0746.2983.2237 1.1185.2237 1.1185.7457 3.3554.9693 4.3993l.2237 1.1184c.2237 1.5659.4474 3.0572.5966 4.6976-.5966.8947-1.5659 1.864-2.908 2.8334-1.4913 1.0439-3.5046 1.9387-9.1714 4.101-5.7415 2.0878-15.2111 5.4432-26.694 8.2766-11.4828 2.8335-24.979 5.2195-35.567 6.7108-10.5881 1.4913-18.2682 1.9387-24.6808 2.1624-6.4125.1491-11.4828 0-14.8382-.2983-3.3554-.4474-5.0704-.8202-6.338-1.193z"/><path fill="#d4cf97" d="M155.742 70.431c-.0746 0-.0746.0746-.1492.0746-.5965.3728-1.3422.8202-2.237 1.2676-2.386 1.193-5.8905 2.908-9.8424 4.4739-3.9519 1.6404-8.3512 3.2808-13.1978 4.772-4.8467 1.566-10.0662 3.0572-15.2857 4.3248-5.2195 1.3421-10.5135 2.4606-16.7769 3.579-6.2634 1.1185-13.5707 2.0879-19.0138 2.759-5.4432.5964-9.0223.8201-12.3777.8947-3.3554.0746-6.4125.0746-10.7372-.0746-4.3993-.149-10.0662-.3728-14.54-.5965-.8202 0-1.5658-.0745-2.3115-.0745.7457-8.202 3.0571-15.9568 6.7108-22.9658.3728.1491.8202.2983 1.3421.4474 1.1185.3728 2.5352.671 4.4739.9693 1.864.2983 4.1756.522 7.3818.5965 3.2808.1492 7.4564.1492 11.4083 0 3.8774-.149 7.531-.3728 11.7812-.8202 4.2501-.4473 9.0968-1.193 12.9741-1.864 3.8773-.6711 6.86-1.2676 9.9916-2.0133 3.1317-.7456 6.338-1.6404 9.5442-2.6097 3.2063-.9694 6.338-2.0133 9.7679-3.43 3.43-1.3421 7.1582-3.0571 10.1407-4.4738 2.9826-1.4167 5.2195-2.4606 6.7108-3.2808.2982-.1492.522-.2983.7456-.3729.5965.5965 1.193 1.1185 1.7896 1.715 4.6975 4.9212 8.724 10.5135 11.7065 16.7024z"/><path fill="#fff3d3" d="M113.5387 37.25c.2982.2237.2982.3729.2236.522-.0745.2982-.2982.522-1.6404 1.2676-1.3421.7456-3.6536 1.9386-6.0397 3.0571-2.3114 1.1185-4.6975 2.1624-6.9344 2.908-2.237.8202-4.3993 1.4167-6.4125 1.8641-2.0878.4474-4.101.7456-6.1889.9693-2.0877.1492-4.3992.2237-6.2633.1492-1.8641-.0746-3.3554-.2237-5.4432-.522-2.0132-.2982-4.623-.671-6.0397-.9693-1.3422-.2983-1.7895-.4474-2.0878-.5965 9.6933-6.338 21.2508-9.9916 33.703-9.9916 4.5484-.0746 8.8731.4474 13.1233 1.3421z"/><path fill="#e5ceaf" d="M142.0967 52.0883c-.2237.0746-.522.2237-.7456.3728-1.4913.8202-3.7282 1.8641-6.7108 3.2808-2.9826 1.4168-6.7108 3.0572-10.1407 4.4739-3.43 1.3421-6.5617 2.4606-9.768 3.43-3.2062.9693-6.487 1.864-9.5441 2.6097-3.1317.7456-6.1143 1.3421-9.9916 2.0132-3.8773.671-8.724 1.4167-12.9742 1.8641-4.2501.4474-7.8292.7456-11.7811.8202-3.8773.1491-8.1275.0746-11.4083 0-3.2808-.1491-5.5177-.3728-7.3818-.5965-1.8641-.2983-3.2809-.5965-4.4739-.9693-.522-.1492-.8948-.2983-1.3421-.4474 2.908-5.5923 6.6362-10.6627 11.0354-15.062 2.9826-2.9825 6.2634-5.6668 9.8425-7.9783.2983.1491.7456.2982 2.0878.5965 1.4913.2982 4.0265.671 6.0397.9693 2.0132.2983 3.5045.4474 5.4432.522 1.864.0745 4.101.0745 6.2633-.1492 2.0878-.149 4.101-.522 6.1889-.9693 2.0878-.4474 4.1756-1.0439 6.4125-1.864 2.2369-.8203 4.5484-1.7896 6.9344-2.908 2.3115-1.1186 4.6976-2.3861 6.0397-3.0572 1.3422-.6711 1.5659-.9694 1.6404-1.2676 0-.1491 0-.2983-.2236-.522 10.8863 2.3115 20.6542 7.6056 28.558 14.8383z"/><path fill="#fff3d3" d="M133.2236 149.3944l-.2983.0746c-3.5045 1.1185-6.2634 1.8641-9.6188 2.6097-3.3553.8202-7.2327 1.6405-10.6626 2.237-3.43.671-6.487 1.193-10.961 1.715-4.0264.5219-9.1713.9693-13.9434 1.4167-9.246-1.9387-17.7463-5.9652-24.979-11.632h.1491c2.5352-.1492 4.101-.1492 6.9345-.3729 2.8334-.149 6.9345-.522 10.961-.8947 4.0264-.3728 7.9037-.8202 12.2284-1.4167 4.3247-.5966 9.1714-1.2676 13.4216-2.0133 4.2501-.671 7.9783-1.4167 11.1846-2.0132 3.1317-.671 5.6668-1.193 9.1714-2.0132 3.43-.8202 7.8292-1.9387 11.9302-3.0572 4.101-1.1184 7.8292-2.386 10.8118-3.1317 1.1185-.2982 2.1624-.522 2.9826-.7456-2.4606 3.8773-5.294 7.3818-8.5003 10.5881-3.3554 3.3554-6.9345 6.2634-10.8118 8.6494z"/><path fill="#e4b175" d="M157.3078 120.8364c-1.8641.5965-3.5045 1.0439-6.6362 1.9387-3.1317.8947-7.7547 2.3114-13.7944 3.8027-5.9651 1.4913-13.347 3.1317-20.9525 4.6976-7.6801 1.5658-15.5839 2.9825-22.2947 4.0264-6.7107 1.044-12.0793 1.6404-17.0006 2.0133-4.8466.4473-9.1714.7456-13.7943 1.0439-2.6843.149-5.5178.3728-7.9038.4473-1.6404-1.7895-3.2063-3.7282-4.623-5.7414h.8202c7.3073-.1491 13.9435-.671 20.4306-1.193 6.4125-.522 12.6759-1.193 19.2375-2.0878s13.4961-2.1624 19.3867-3.2808c5.816-1.1185 10.588-2.0878 15.062-3.0572 4.4738-.9693 8.724-2.0132 12.6758-3.0571 3.952-1.0439 7.6801-2.1624 12.7505-3.8028 2.7588-.8947 5.9651-1.9386 9.1714-3.057-.6711 2.4605-1.5659 4.9211-2.5352 7.3072zM46.5055 126.876c-.7456-1.3422-1.4167-2.6843-2.0132-4.101 4.1756.2236 9.1714.3728 13.7944.2982 5.6668-.0746 10.8118-.2982 18.0445-.9693 7.2327-.5965 16.5532-1.5659 25.3518-2.908 8.724-1.2676 16.926-2.908 24.8298-4.9958 7.9038-2.0132 15.5839-4.4739 21.6982-6.7108 5.6668-2.0878 10.0661-3.9519 13.5706-5.6669-.0745 1.4913-.2982 2.9826-.522 4.4739l-.671.2982c-3.2808 1.3422-6.7853 2.6098-10.5881 3.8774-3.8028 1.2676-7.9784 2.4606-13.4215 3.8773-5.4432 1.4167-12.2286 3.0571-18.4174 4.3247-6.2634 1.2676-11.9302 2.237-18.1936 3.2063-6.2634.9693-12.9742 1.9387-19.0884 2.6843-6.1143.7456-11.632 1.193-17.2989 1.5658-5.7414.3729-11.632.6711-16.255.6711z"/><path fill="#fee27d" d="M159.6938 80.6463c-.3728.2237-.671.3729-.9693.5966-2.908 1.6404-5.2195 2.6097-8.1275 3.7282-2.908 1.1184-6.338 2.386-10.5881 3.7282-4.2501 1.4167-9.3205 2.908-15.062 4.4738-5.816 1.5659-12.3776 3.2063-18.8647 4.5484-6.487 1.3422-12.8995 2.386-18.9392 3.2063-6.0397.8202-11.7066 1.4167-17.5226 1.9386-5.816.4474-11.7811.8202-16.4041.9694-4.623.1491-7.8292.0745-10.7372-.0746a308.8691 308.8691 0 01-3.1317-.2237c-.2237-2.0132-.2983-4.0264-.2983-6.1142 0-1.8641.0746-3.7282.2237-5.5178.7457 0 1.4913.0746 2.3115.0746 4.4738.2237 10.1407.4474 14.54.5965 4.3993.1491 7.4564.1491 10.7372.0746 3.3554-.0746 6.9345-.2983 12.3777-.8948 5.4431-.5965 12.7504-1.6404 19.0138-2.7589 6.2634-1.1184 11.5574-2.2369 16.777-3.579 5.294-1.3422 10.5135-2.8335 15.2856-4.3248 4.8466-1.5658 9.246-3.1317 13.1978-4.772 3.952-1.6405 7.531-3.2809 9.8425-4.474.9693-.5219 1.7895-.9693 2.386-1.342 1.6404 3.2062 2.908 6.6361 3.952 10.1406z"/><path fill="#eac39a" d="M36.663 94.888c-1.4912.5966-4.101 1.6405-7.3818 3.0572-3.3554 1.4167-7.3818 3.1317-10.9609 4.9212-3.579 1.8641-6.7108 3.8028-9.246 5.5923-2.5351 1.7896-4.5484 3.5046-6.0396 5.145-1.4913 1.715-2.386 3.43-2.759 4.9958-.3727 1.5658-.2236 3.057.373 4.3247.5219 1.2676 1.4912 2.237 3.1316 3.2808 1.6404 1.0439 3.8773 2.0878 6.0397 2.908 2.1624.8202 4.101 1.4167 7.1581 2.0132 3.0572.5965 7.0836 1.1185 13.1233 1.4913 5.9652.3728 13.9435.522 21.2508.3728 7.3073-.149 13.9435-.671 20.4306-1.193 6.4125-.522 12.6759-1.193 19.2375-2.0878s13.496-2.1623 19.3867-3.2808c5.816-1.1185 10.588-2.0878 15.062-3.0571 4.4738-.9694 8.7239-2.0133 12.6758-3.0572 3.9519-1.0439 7.6801-2.1623 12.7505-3.8027 5.0703-1.6404 11.4083-3.7282 17.0006-5.8906 5.5923-2.1624 10.439-4.3247 14.018-5.9651 3.5791-1.715 5.816-2.9826 8.3512-4.623 2.5352-1.6404 5.294-3.6536 7.0836-5.3686 1.864-1.715 2.7589-3.0571 3.3554-4.101.5965-1.044.8202-1.7896.8202-2.908-.0746-1.1185-.3728-2.6843-1.193-4.101-.8203-1.4168-2.0878-2.6098-3.5791-3.6537-1.4913-.9693-3.1317-1.715-5.5923-2.4606-2.4606-.7457-5.6669-1.4913-8.5749-1.9387-2.908-.522-5.5177-.7456-9.246-.9693-3.6536-.2237-8.4257-.522-11.2591-.7457-2.8335-.2236-3.8028-.4473-4.3247-.5219-.4474-.0746-.522-.0746-.522-.0746l.3728.8948c.3728.8948 1.044 2.7589 1.3422 3.7282l.3728.9693h.671c.6712 0 1.9387 0 3.5792.1492 1.6404.0745 3.579.2982 5.816.7456 2.2369.3728 4.8466.9693 6.6362 1.4913 1.7895.522 2.8334.8948 3.6536 1.3421.8948.4474 1.5658.8203 2.1624 1.2676.5965.4474 1.193.9694 1.715 1.6404.5219.6711.8947 1.4168 1.1184 2.3861.1491.8948.1491 1.9387-.2237 2.908-.2983 1.0439-.9693 2.0878-1.9387 3.2063-1.0439 1.1184-2.4606 2.386-4.5484 3.8773-2.0878 1.4913-4.9212 3.2062-7.8292 4.6975-2.908 1.5659-6.0397 2.908-9.3205 4.1756-3.2808 1.3422-6.7853 2.6098-10.5881 3.8773-3.8028 1.2676-7.9784 2.4607-13.4216 3.8774-5.4431 1.4167-12.2285 3.0571-18.4173 4.3247-6.2634 1.2676-11.9302 2.237-18.1936 3.2063-6.2634.9693-12.9742 1.9386-19.0884 2.6843-6.1143.7456-11.632 1.193-17.2989 1.5658s-11.632.671-16.255.671c-4.623 0-7.9783-.2236-11.0355-.5964-3.057-.3729-5.7414-.8202-8.0529-1.3422-2.2369-.522-4.0264-1.0439-5.7414-1.7895-1.715-.7457-3.3554-1.715-4.3993-2.6843-1.0439-.9694-1.4913-1.9387-1.6404-3.0572-.1491-1.1184.1491-2.3114.8202-3.6536.671-1.2676 1.7895-2.6097 3.3554-3.9519 1.5658-1.3422 3.5045-2.7589 5.4432-3.9519 1.9386-1.2676 3.8773-2.3115 5.5177-3.1317 1.6404-.8202 3.0571-1.3421 4.2502-1.6404 1.193-.2983 2.0878-.3728 2.6097-.4474.4474-.0745.522-.0745.522-.0745v-1.193-4.474-1.1184s-.0746 0-.2983.0746c-.3728.2237-.7456.3728-2.237 1.0439z"/><path fill="#fee27d" d="M38.7509 101.748c-.4474.2237-1.4913.522-2.759 1.1184-1.2675.5966-2.7588 1.3422-4.3992 2.386-1.6404 1.044-3.3554 2.3116-4.8467 3.5792-1.4912 1.3421-2.6097 2.6843-3.3553 4.0264-.6711 1.2676-.8948 2.4606-.4474 3.5791s1.6404 2.0132 3.0571 2.8334c1.4167.8202 3.0571 1.4913 5.5177 2.0133 2.3861.5965 5.5924 1.0439 10.2153 1.3421 4.623.2983 10.7373.522 16.4041.4474 5.6669-.0746 10.8118-.2982 18.0445-.9693 7.2328-.5965 16.5533-1.5659 25.3518-2.908 8.724-1.2676 16.926-2.908 24.8299-4.9958 7.9038-2.0132 15.5839-4.4739 21.6981-6.7108 6.1888-2.237 10.8118-4.3247 14.4655-6.0397 3.6536-1.715 6.2633-3.2062 8.3511-4.5484 2.0133-1.3421 3.43-2.5352 4.4739-3.7282 1.0439-1.193 1.6404-2.3115 1.864-3.3554.2238-1.0439.1492-2.0132-.2982-2.8334-.4474-.8948-1.193-1.715-2.0878-2.386-.8947-.6711-1.9386-1.193-3.5045-1.715-1.5658-.522-3.6536-1.044-5.5177-1.4168-1.8641-.3728-3.5791-.5219-4.5484-.671-.9694-.0746-1.2676-.0746-1.4167-.0746h-.2237-.0746l.2237 1.1185c.2237 1.1184.7456 3.3554.9693 4.3993l.2237 1.1184s.0746 0 .0746.0746c0 0 .0745 0 .2237.1491.2237.0746.522.2983.7456.5965.2237.2983.2237.671.2237 1.2676 0 .5965 0 1.2676-.522 2.237-.5219.9693-1.5658 2.1623-3.1316 3.2062-1.4913 1.0439-3.5045 1.9387-9.1714 4.101-5.7415 2.0878-15.2111 5.4432-26.694 8.2766-11.4828 2.8335-24.979 5.2195-35.567 6.7108-10.5881 1.4913-18.2682 1.9387-24.6808 2.1624-6.4125.149-11.4828 0-14.8382-.2983-3.43-.2983-5.145-.671-6.4125-1.0439-1.2676-.3728-2.0133-.8202-2.6843-1.4167-.5965-.5965-1.044-1.2676-1.193-1.9387-.1492-.671-.0746-1.193.149-1.6404.1492-.3728.3729-.5965.5966-.8202.2982-.2237.5965-.3728.8202-.522.2237-.0745.4474-.149.5965-.149h.3728v-.0746c0-.0746 0-.1492-.2237-1.2676-.2237-1.1185-.522-3.43-.671-4.5484.149-.8948.2236-.8948-.2237-.6711z"/></g></svg>