<svg xmlns="http://www.w3.org/2000/svg" viewBox="0 0 201.97 202.7298">
    <g fill-rule="evenodd" clip-rule="evenodd">
        <path fill="#ffd632" d="M91.832 24.3873l9.687-22.8028 9.6869 22.5457 10.0298-12.9445 3.5147 15.602 18.088-16.0306-.4287 24.603 14.1447-7.9724-2.9147 15.7734 23.2315-8.2296-10.4585 22.5456 16.4592-1.0287-9.2583 12.9445 24.003 2.2289-18.088 16.4591 15.1733 5.315-13.716 8.401 20.917 11.9158-22.9743 7.2009 11.3156 11.4871-15.7733 1.6288 14.4017 19.7167-23.8315-2.486 6.1722 14.7447-15.4305-4.2862 5.315 23.5743-20.917-12.0872-.1714 15.602-12.9444-9.687-4.2863 23.2315-14.4018-19.2881-6.1722 14.4017-7.2008-13.5445-14.5733 18.688-4.8863-23.2314-11.3157 10.0298-1.2001-15.602-20.917 11.6587 5.1436-23.5744-15.1733 4.5434 5.7435-14.7447-23.5743 2.2289 13.716-19.4596-15.7734-1.0287 11.4871-12.0872-23.2314-6.9437 20.7454-11.9158-12.5158-9.001 15.0018-4.8864L5.5927 72.136l23.8316-2.486L20.766 56.277l16.202 2.0574-10.4585-22.9743 23.2315 8.401-2.9147-15.7733 13.3731 7.6295.1715-25.0317 18.2594 16.6306 3.6862-15.0018zm16.545 5.0578c17.8307 10.5442 29.8322 30.0037 29.8322 52.2922 0 33.5184-27.1748 60.6932-60.6932 60.6932-22.2028 0-41.6623-11.9157-52.2065-29.7465 1.1144 12.6873 5.2292 24.4316 11.7443 34.6329 13.6303 21.174 37.4618 35.233 64.6366 35.233 42.4338 0 76.8095-34.3758 76.8095-76.8096 0-15.1733-4.4577-29.4037-12.0015-41.3194-12.6872-19.4596-33.7756-32.9184-58.1215-34.9758zM82.488 41.1037c24.4316 0 44.234 19.8024 44.234 44.234 0 24.4317-19.8024 44.2341-44.234 44.2341-24.4316 0-44.234-19.8024-44.234-44.234.0857-24.4317 19.8024-44.2341 44.234-44.2341z"/>
        <path fill="#ffaf32" d="M153.6397 49.3333c4.8863 4.4577 9.0868 9.5154 12.6873 15.0876 7.6295 11.9157 12.0015 26.0603 12.0015 41.3194 0 42.4338-34.3757 76.8095-76.8096 76.8095-25.7174 0-48.5203-12.6873-62.4077-32.0611 13.6303 12.5158 31.8897 20.1453 51.8636 20.1453 42.4338 0 76.8095-34.3756 76.8095-76.8095 0-16.6306-5.2292-31.8897-14.1446-44.4912zM38.5111 149.5457c-.1714-.2572-.3429-.4286-.5143-.6858.2572.2572.4286.5144.5143.6858zm-1.3716-2.1431l-.0857-.1715-.1714-.2571z"/>
        <path fill="#febb32" d="M153.4683 49.0761c9.001 12.6016 14.316 28.032 14.316 44.7484 0 42.4339-34.3757 76.8095-76.8095 76.8095-19.974 0-38.1476-7.6295-51.8636-20.1453l-1.2859-1.8002c11.4014 6.6865 24.603 10.4584 38.7477 10.4584 42.4338 0 76.8095-34.3757 76.8095-76.8095 0-15.8591-4.8006-30.6038-13.1159-42.8625-6.7723-3.9433-14.1446-6.9437-21.9456-8.6582 13.3731 2.9146 25.3746 9.344 35.1473 18.2594zm-37.5476-18.8595c.7716.1715 1.6288.343 2.4003.5144-.8572-.1715-1.6287-.343-2.4003-.5144z"/>
        <path fill="#fec333" d="M140.3523 39.3892c8.2296 12.2587 13.116 27.0033 13.116 42.8624 0 42.4339-34.3757 76.8096-76.8096 76.8096-14.1446 0-27.432-3.8576-38.7476-10.5442-7.8867-11.7443-12.6873-25.8032-13.0302-40.9765 0 1.6288.1714 3.1718.2571 4.8006 10.5442 18.0022 30.0895 30.0037 52.378 30.0037 33.5184 0 60.6932-27.1748 60.6932-60.6932 0-22.46-12.173-42.0052-30.2609-52.5494-1.2859-.0857-2.5717-.1715-3.9433-.2572 13.2016.5144 25.6317 4.2863 36.3473 10.5442z"/>
        <path fill="#fee332" d="M82.488 41.1037c24.4316 0 44.234 19.8024 44.234 44.234 0 24.4317-19.8024 44.2341-44.234 44.2341-24.4316 0-44.234-19.8024-44.234-44.234.0857-24.4317 19.8024-44.2341 44.234-44.2341zm0 7.8867c18.8595 0 34.2043 15.3447 34.2043 34.2042S101.3475 117.399 82.488 117.399c-18.8595 0-34.2042-15.3448-34.2042-34.2043.0857-18.9452 15.3447-34.2042 34.2042-34.2042z"/>
        <path fill="#feea32" d="M82.488 48.9904c18.8595 0 34.2043 15.3447 34.2043 34.2042S101.3475 117.399 82.488 117.399c-18.8595 0-34.2042-15.3448-34.2042-34.2043.0857-18.9452 15.3447-34.2042 34.2042-34.2042zm.1715 12.5158c11.83 0 21.4312 9.6012 21.4312 21.4312s-9.6012 21.4313-21.4312 21.4313-21.4313-9.6012-21.4313-21.4313c0-11.83 9.6012-21.4312 21.4313-21.4312z"/>
        <path fill="#fef231" d="M82.6595 61.5062c11.83 0 21.4312 9.6012 21.4312 21.4312s-9.6012 21.4313-21.4312 21.4313-21.4313-9.6012-21.4313-21.4313c0-11.83 9.6012-21.4312 21.4313-21.4312z"/>
    </g>
</svg>