<svg xmlns="http://www.w3.org/2000/svg" viewBox="0 0 201.97 202.7298"><g fill-rule="evenodd" clip-rule="evenodd"><path fill="#59abd3" d="M172.0748 30.7504c-14.652-14.652-33.744-24.716-55.0561-28.12l-4.144.592s-.296.296-.444.296c-.148.148-.74.592-.888.74-14.652 13.024-11.544 15.392-37.1481 30.044-12.136 6.956-27.824 13.32-42.1801 14.652-15.244 1.48-15.54.74-15.836-1.776C7.3504 60.9426 1.7264 77.0746.5424 94.5387v-.296c23.828 6.364 73.408-1.036 77.552 4.736 5.9201 11.248-22.2 18.648-30.044 20.72-21.312 5.624-40.7 0-45.584 3.552 4.144 19.2401 13.764 36.2601 27.232 49.7282 18.204 18.204 43.364 29.452 71.0401 29.452h4.144l3.108-4.588c-2.664-5.92-5.476-6.216-9.916-9.472-6.068-4.44-9.028-10.952.296-12.728 9.768-1.776 38.6281 22.644 47.9522 7.696-3.996-6.364-12.876-8.14-19.388-11.692-9.1761-5.032-8.4361-14.06 1.332-14.948 6.216-.592 34.188 12.136 48.1 11.1l-.888 1.332c15.984-17.76 25.752-41.2921 25.752-67.1922v-.148c-5.624-.74-43.512-8.732-51.208-12.136-14.652-6.512-30.1921-17.316-25.9001-27.676 11.1-3.9961 48.3961-12.8761 60.6801-14.9481-3.404-5.92-7.696-11.396-12.728-16.28z"/><path fill="#7abadd" d="M16.6744 47.1785c.444 2.516.592 3.404 15.836 1.776 14.3561-1.48 29.8962-7.696 42.1802-14.652 25.604-14.652 22.496-17.02 37.148-30.0441.148-.148.74-.592.888-.74.148 0 .296-.296.444-.296l4.144-.592c-5.18-.888-10.656-1.332-16.132-1.332-27.824 0-52.836 11.248-71.0401 29.452-5.18 5.032-9.62 10.508-13.468 16.428zM2.4664 124.278c4.736-3.548 24.272 2.1597 45.5841-3.7023 7.844-2.1598 35.9641-9.873 30.044-21.5971-4.144-5.862-53.724 1.8512-77.552-4.9365-.148 2.6225-.296 5.245-.296 7.8675 0 7.7133.74 15.118 2.22 22.3684zM175.771 168.7524l.8918-1.337c-13.9722.966-42.0654-11.4572-48.3083-10.8303-9.959.9435-10.7022 9.9757-1.3378 14.9555 6.5402 3.5154 15.4587 5.3897 19.472 11.5833-9.3644 15.0003-38.3494-9.258-48.1597-7.4272-9.3644 1.6803-6.3916 8.1757-.2973 12.7297 4.4592 3.2311 7.2834 3.5114 9.959 9.4164l-3.1215 4.6055c26.1608-1.182 49.7948-12.414 67.1858-29.6792 1.3377-1.3394 2.5269-2.678 3.716-4.0167zM184.8028 47.0305c-12.284 2.072-49.58 10.952-60.6801 14.948-4.292 10.36 11.248 21.164 25.9 27.676 7.696 3.404 45.5842 11.3961 51.2082 12.1361 0-14.948-3.256-29.156-9.176-42.032-2.368-5.0321-4.884-9.4721-6.364-11.8401-.444-.148-.592-.444-.888-.888z"/></g></svg>