<svg xmlns="http://www.w3.org/2000/svg" viewBox="0 0 201.97 202.7298"><g fill-rule="evenodd" clip-rule="evenodd"><path fill="#f2dac2" d="M.6976 96.9965c.1114-1.7819.2227-3.5637.4455-5.3455 27.0615-14.7001 52.3412-23.7206 76.73-42.0958l33.632-26.9501c4.232-3.4523 9.132-7.6842 13.5865-10.8024 2.116-1.4477 4.2319-3.4523 5.5682-6.0137 7.7956 2.3387 15.1456 5.6796 22.0502 9.8001l1.6705 1.0023c-.5569-.2228-1.0023-.4455-1.5591-.6682l-.2228.2227c-2.1159 1.6705-22.2728 12.5842-23.832 12.9183-4.7886 3.4523-11.4705 6.125-16.5932 9.3546-5.2342 3.341-10.357 6.6819-15.4797 9.8C71.5254 63.3645 27.7591 97.2193.475 107.3535c.1113 1.6704-.1114-5.2342-.1114-5.3455.2227-1.6705.2227-3.341.3341-5.0114zm164.2625-72.9437c2.6727 2.116 5.1227 4.4546 7.4614 6.7932l2.116 2.116c-19.6002 8.575-31.8503 19.1546-48.3322 31.9615L109.2779 76.06c-7.5728 5.1227-29.2889 15.591-40.8707 15.3683-.2228-4.0092 3.2295-6.125 6.125-8.6865 7.35-6.2364 63.8118-43.989 64.1459-44.6571l25.9479-14.032.334-.1113c-1.7817-1.3363-2.45-1.7818 0 .1114zm15.7024 16.1478c3.675 4.6773 6.7932 9.5774 9.5773 14.8115-2.8955 2.45-6.125 3.675-9.5773 5.6796-3.675 2.2273-6.3478 3.8977-10.0228 6.2364-24.3888 15.591-42.6526 30.0684-69.9369 43.989L17.625 158.3582c-3.675-5.4569-6.9046-11.3592-9.466-17.5956.1114.2227.2227.334.3341.4454 5.9023-2.784 13.0296-5.234 19.1547-7.5727 20.9365-8.1296 35.3025-15.591 55.1254-24.5002 23.0524-10.3569 31.9615-17.9297 48.4435-31.9616 15.1455-12.6955 36.6389-25.2797 49.4458-36.973zm18.1524 36.7503c.6681 2.5614 1.225 5.0114 1.6704 7.6841.1114.4455 1.0023 5.791.1114.4455-.1114 0-.2227 0-.4455.1113-6.7932 1.1137-20.8251 8.3524-25.1683 10.357-5.9023 2.784-21.6047 9.6886-25.3911 13.141-10.2455 3.675-38.4207 21.2705-46.3276 28.3979-41.7616 37.4184 53.5663.4454 57.5754.334 0 11.8047-31.2934 20.2684-42.2071 24.9457-12.1387 5.2341-32.7411 9.3546-42.5412 17.15-2.5614 2.0046-1.4477 2.2274-3.5637 3.5638l-.334 4.9c12.25 6.7932 41.2048-12.6956 52.3412-6.9046 2.116 7.6841-7.6841 13.3637-11.8046 19.6001-.4455.6682-.891 1.225-1.225 1.7819-3.341.334-6.6819.5568-10.1342.5568-22.4956 0-43.2094-7.35-60.0254-19.8229-.334-.2227-.6682-.4454-.1114-.1113l.1114-.1114 1.225-1.6705c2.3387-4.6773 19.266-22.0501 23.832-25.8365 20.6024-17.1501 32.2957-27.8411 55.905-41.7617l31.7388-17.15c6.9046-2.5615 14.1433-6.5706 22.2729-10.1342 5.5682-2.6728 16.5932-8.1296 22.4956-9.466z"/><path fill="#d4bca4" d="M.6976 107.3534v.4454c.6682 11.582 3.341 22.7184 7.5728 32.9639.1113.2227.2227.334.334.4454 5.9024-2.784 13.0297-5.234 19.1547-7.5727 20.9366-8.1296 35.3026-15.591 55.1254-24.5002 23.0525-10.3569 31.9616-17.9297 48.4435-31.9616 15.0342-12.8069 36.5276-25.391 49.4458-37.0843-1.8932-2.45-4.009-4.9-6.125-7.2387-19.6001 8.575-31.8502 19.1547-48.3322 31.9616l-16.9274 11.1364c-7.5727 5.1228-29.2888 15.591-40.8707 15.3683-.2227-4.0091 3.2296-6.125 6.125-8.6864 7.3501-6.2364 63.8119-43.989 64.146-44.6572l25.9479-14.1432c-3.2296-2.6728-6.5705-5.0114-10.1342-7.2387-.5568-.2228-1.0023-.4455-1.5591-.6682-.3341.7795-22.3843 12.8069-23.9434 13.0296-4.7886 3.4523-11.4705 6.125-16.5932 9.3546-5.2342 3.341-10.357 6.6819-15.4797 9.8001-25.2797 15.257-69.046 49.1117-96.3302 59.2459z"/><path fill="#d2aa95" d="M1.143 91.651c27.0616-14.7001 52.3413-23.7206 76.8415-42.0958l33.632-26.9501c4.2319-3.4523 9.132-7.6842 13.5865-10.8024 2.116-1.4477 4.2318-3.4523 5.5682-6.0137-9.3546-2.8954-19.266-4.3432-29.5116-4.3432-27.841 0-53.0094 11.2478-71.1618 29.5116C14.1727 46.771 3.4818 68.0417 1.1431 91.651z"/><path fill="#d5aa97" d="M41.2342 182.8584l1.3364-1.7818c2.3387-4.6773 19.266-22.0502 23.832-25.8365 20.6024-17.1502 32.2957-27.8411 55.905-41.7617l31.7388-17.1501c6.9046-2.5614 14.1433-6.5705 22.2729-10.1342 5.5682-2.45 16.5932-7.9068 22.4956-9.2432-2.0046-7.6842-4.7887-15.0342-8.4637-21.9388-2.8955 2.45-6.125 3.675-9.5774 5.6796-3.675 2.2273-6.3477 3.8977-10.0228 6.2364-24.3888 15.591-42.6525 30.0684-69.9368 43.989l-83.0779 47.4412c3.5637 5.3454 7.6842 10.3568 12.2501 14.8114 3.5637 3.5637 7.2387 6.7932 11.2478 9.6887z"/><path fill="#d4bca4" d="M149.5918 108.5784c-10.2455 3.675-38.4207 21.2706-46.3276 28.3979-41.7616 37.4184 53.5663.4454 57.5754.334 0 11.8047-31.2934 20.2684-42.2071 24.9457-12.1387 5.2341-32.7411 9.3546-42.5412 17.1501-2.5614 2.0046-1.4477 2.2273-3.5637 3.5637l-.334 4.9c12.25 6.7932 41.2048-12.6955 52.3412-6.9046 2.116 7.6842-7.6841 13.3638-11.8046 19.6002-.4455.6681-.891 1.225-1.225 1.7818 23.7206-2.3387 45.1026-13.0296 61.0277-28.9548 18.2637-18.2637 29.5115-43.432 29.5115-71.1618 0-5.791-.4454-11.4705-1.4477-17.0388-6.6819.891-21.1592 8.3524-25.5025 10.4683-6.0136 2.5614-21.716 9.466-25.5024 12.9183z"/></g></svg>