
<svg xmlns="http://www.w3.org/2000/svg" width="297mm" height="297mm" viewBox="0 0 297 327">
    <g transform="matrix(.46708 0 0 .46708 -12.6 24.6)">
        <circle cx="258.7" cy="223.5" fill="#e75163" r="18.4" transform="rotate(-45)"/>
        <path d="M278.9 143.1l.3 46.1h.1l126.3.7-.3-46z" fill="#b0b5ca"/>
        <path d="M280.4 310l126 .8v4.2a63.2 63.2 0 01-126.3.7v-5.6z" fill="#b0b5ca"/>
        <path d="M550.6 206.4l.4 102.4v.2l64.5.4-.5-102.6z" fill="#6d7486"/>
        <path d="M279.3 189.2h-.1l.8 120.9h.4l126 .7-.8-120.9z" fill="#e75163"/>
        <path d="M66.6 203.5l.5 102.7 64.4.3-.5-102.4v-.2z" fill="#6d7486"/>
        <path d="M324.5 113l.3 30.3 33.3.2-.3-29.2z" fill="#6d7486"/>
        <path d="M358 114.5a87.4 87.4 0 01-33.3-1.2 88.1 88.1 0 01-68-80.4l83.2.5 90.2.5a85.6 85.6 0 01-72.2 80.6z" fill="#b0b5ca"/>
        <path d="M250.6 223h-.1l.2 66H280l-.5-65.8z" fill="#6d7486"/>
        <path d="M406 223.9h-.2l.5 65.9 25.1.1h.2l-.3-65.9z" fill="#6d7486"/>
        <path d="M431.3 224v-18.3l119.3.7.1 37.2h-.2l-119.1-.4z" fill="#4689d3"/>
        <path d="M550.7 243.6l.2 27.4h-.3l-119-.3-.2-27.5 119 .4z" fill="#5fa8ed"/>
        <path d="M550.9 271l.1 37.8v.2l-119.3-.7-.1-18.4v-19.2l119 .3z" fill="#4689d3"/>
        <path d="M131 204l119.4.6V223l.1 19.2-119.3-.3-.2-37.8z" fill="#4689d3"/>
        <path d="M250.5 242.2l.2 27.5-119.4-.4-.1-27.4 119.3.3z" fill="#5fa8ed"/>
        <path d="M250.7 289l.1 18.3-119.3-.8-.2-37.2 119.4.4z" fill="#4689d3"/>
        <path d="M311.1 315.7v-5.5l-30.7-.1h-.4v5.6a63.3 63.3 0 0078.8 61 63.2 63.2 0 01-47.7-61z" fill="#9499aa"/>
        <path d="M311 310h.5-.4z" fill="#e75163"/>
        <path d="M279.3 189.2h-.1l.8 120.9H311.1l-.8-120.7z" fill="#c6475c"/>
        <path d="M310.3 189.4v-.2l-.4-46h-31l.3 46h.1z" fill="#9499aa"/>
        <path d="M287.8 33l-31.1-.1a88.1 88.1 0 0068 80.4 87.4 87.4 0 0033.2 1.2l2-.4-4.1-.8a88.1 88.1 0 01-68-80.2z" fill="#9499aa"/>
        <g fill="#0ff">
            <path style="fill:green;transform: scale(1,1.1)" d="M286.8 404.7a6.6 6.6 0 00-6.6 6.7v46.4a6.6 6.6 0 1013.1 0v-46.4a6.6 6.6 0 00-6.5-6.7zm72 0a6.6 6.6 0 00-6.6 6.7v17.8a6.6 6.6 0 1013.2 0v-17.8a6.6 6.6 0 00-6.7-6.7zm36.1 8a6.6 6.6 0 00-6.6 6.6v31.5a6.6 6.6 0 1013.2 0v-31.5a6.6 6.6 0 00-6.6-6.5zm-72.2 4a6.6 6.6 0 00-6.5 6.6v13.4a6.6 6.6 0 0013.2 0v-13.4a6.6 6.6 0 00-6.7-6.6zm36.5 36.2a6.6 6.6 0 00-6.5 6.6v26.3a6.6 6.6 0 0013.2 0v-26.3a6.6 6.6 0 00-6.7-6.6zm-36 3.7a6.6 6.6 0 00-6.6 6.6v35.6a6.6 6.6 0 006.6 6.5 6.6 6.6 0 006.6-6.5v-35.6a6.6 6.6 0 00-6.5-6.6zm72 14.1a6.6 6.6 0 00-6.5 6.6v19.5a6.6 6.6 0 0013.2 0v-19.5a6.6 6.6 0 00-6.6-6.6zm-108 7a6.6 6.6 0 00-6.6 6.7v12.4a6.6 6.6 0 0013.2 0v-12.4a6.6 6.6 0 00-6.6-6.6zm72 28.3a6.6 6.6 0 00-6.5 6.5V539a6.6 6.6 0 0013.2 0v-26.5a6.6 6.6 0 00-6.6-6.5zm36.1 10.9a6.6 6.6 0 00-6.6 6.6V536a6.6 6.6 0 1013.2 0v-12.4a6.6 6.6 0 00-6.6-6.6zm-108.2 0a6.6 6.6 0 00-6.5 6.6V539a6.6 6.6 0 0011.2 4.7 6.6 6.6 0 002-4.7v-15.5a6.6 6.6 0 00-6.7-6.6zm36 2a6.6 6.6 0 00-6.5 6.6v3.4a6.6 6.6 0 1013.2 0v-3.4a6.6 6.6 0 00-6.6-6.6zm.2 29.5a6.6 6.6 0 00-6.7 6.7v19.2a6.6 6.6 0 0013.2 0V555a6.6 6.6 0 00-6.5-6.7z"/>
            <path d="M303.6 212.5v7a6.6 6.6 0 1013.1 0v-7a6.6 6.6 0 10-13.1 0z"/>
            <path d="M303.6 240.3v49a6.6 6.6 0 0013.1 0v-49a6.6 6.6 0 00-13.1 0z"/>
            <path d="M431.1 199a6.7 6.7 0 00-4.8 1.8 6.8 6.8 0 00-1.8 4.8l.1 11.7h-12.2l-.6-73.5a6.6 6.6 0 00-6.5-6.6l-40.6-.2-.1-17a92 92 0 0072-85.8 6.6 6.6 0 00-6.5-7l-83.6-.4V-.5a25 25 0 10-13.2-.6v27.8l-76.6-.4a6.6 6.6 0 00-6.6 7 94.6 94.6 0 0068 85.1l.1 18.3-39.3-.2a6.6 6.6 0 00-4.7 2 6.6 6.6 0 00-2 4.7l.6 73.3H257v-11.9a6.6 6.6 0 00-6.6-6.6L66.5 197a6.7 6.7 0 00-4.8 1.8 6.7 6.7 0 00-1.8 4.8l.5 102.6a6.6 6.6 0 006.6 6.6l184 1.3a6.9 6.9 0 004.8-1.8 6.8 6.8 0 001.8-4.8l-.2-11.8h16v20.1a70 70 0 0069.5 69.4A69.8 69.8 0 00413 315v-18.5h12v11.9a6.6 6.6 0 006.6 6.6l184 1.2a6.8 6.8 0 004.8-1.8 6.8 6.8 0 001.8-4.8l-.5-102.7a6.8 6.8 0 00-6.7-6.7zM329.2-25a11.8 11.8 0 0123.6 0 11.8 11.8 0 11-23.6 0zm108.6 237.2l106.2.6.1 24-106.1-.2zm106.4 37.9v14.2l-106.1-.3V250zM264 39.5l159 1a79 79 0 01-79.1 68.5 81.4 81.4 0 01-80-69.5zm67.3 81.7a94.5 94.5 0 0012.5 1c2.6 0 5-.2 7.6-.3v15h-20zm-87.5 90l.1 24.4-106.2-.3v-24.7zm.2 37.6v14.3l-106.1-.4-.1-14.2zM73.6 299.6l-.4-89.4 51.2.3.5 89.4zm170.6 1L138 300v-24l106 .2zm13.1-18.2l-.2-52.8 15.8.1.3 52.8zm126 73a56.2 56.2 0 01-40.4 16.5 56.8 56.8 0 01-56.2-55.2l113.1.6a56.2 56.2 0 01-16.5 38zm16.5-51.3l-113.2-.6-.8-107.7h8.8a6.6 6.6 0 000-13l-8.9-.1-.2-33 113.2.7.2 32.9-60.3-.3a6.6 6.6 0 00-6.6 6.5 6.6 6.6 0 006.5 6.6l60.5.4zm12.7-73.6h12.2l.3 52.8h-12.2zm25.7 71.2v-24.4l106.1.3.1 24.7zm170.6 1l-51.2-.3-.4-89.4 51.2.3z"/>
        </g>
    </g>
</svg>
