<svg
   xmlns:dc="http://purl.org/dc/elements/1.1/"
   xmlns:cc="http://creativecommons.org/ns#"
   xmlns:rdf="http://www.w3.org/1999/02/22-rdf-syntax-ns#"
   xmlns:svg="http://www.w3.org/2000/svg"
   xmlns="http://www.w3.org/2000/svg"
   width="297mm"
   height="297mm"
   viewBox="0 0 297 327"
   version="1.1">
  <g>
    <g
       transform="matrix(0.46707787,0,0,0.46707787,-12.596999,24.58693)">
      <circle
         cx="258.74191"
         cy="223.53752"
         fill="#e75163"
         r="18.395136"
         transform="rotate(-45)"
         style="stroke-width:1.09868" />
      <path
         d="m 278.85314,143.1112 0.32629,46.10015 h 0.1243 l 126.28208,0.70695 -0.3263,-46.10013 z"
         fill="#b0b5ca"
         id="path12"
         style="stroke-width:1.09868" />
      <path
         d="m 280.39913,310.07079 126.01794,0.70697 0.0311,4.21069 a 63.196956,63.196956 0 0 1 -126.39085,0.70696 l -0.0388,-5.61685 z"
         fill="#b0b5ca"
         id="path14"
         style="stroke-width:1.09868" />
      <path
         d="m 550.56742,206.37266 0.47389,102.41627 v 0.18646 l 64.41124,0.38067 -0.45836,-102.60273 z"
         fill="#6d7486"
         id="path16"
         style="stroke-width:1.09868" />
      <path
         d="m 279.30373,189.21135 h -0.1243 l 0.83903,120.86721 0.38067,-0.008 126.01794,0.70696 -0.83126,-120.85945 z"
         fill="#e75163"
         id="path18"
         style="stroke-width:1.09868" />
      <path
         d="m 66.601363,203.54481 0.450592,102.6105 64.426785,0.38067 -0.4739,-102.43182 v -0.17091 z"
         fill="#6d7486"
         id="path20"
         style="stroke-width:1.09868" />
      <path
         d="m 324.46385,113.08474 -0.008,0.008 0.30298,30.16629 33.29325,0.24472 -0.26569,-29.16567 z"
         fill="#6d7486"
         id="path22"
         style="stroke-width:1.09868" />
      <path
         d="m 357.9319,114.48313 a 87.442543,87.442543 0 0 1 -33.23499,-1.16532 88.133611,88.133611 0 0 1 -68.01597,-80.414999 l 83.24285,0.473897 90.18816,0.504974 A 85.622037,85.622037 0 0 1 357.9319,114.48313 Z"
         fill="#b0b5ca"
         id="path24"
         style="stroke-width:1.09868" />
      <path
         d="m 250.59796,222.98238 h -0.13983 l 0.27967,65.92616 28.80676,0.15537 h 0.3263 l -0.46614,-65.91062 z"
         fill="#6d7486"
         id="path26"
         style="stroke-width:1.09868" />
      <path
         d="m 405.95094,223.86026 h -0.13984 l 0.46613,65.91062 25.17096,0.15537 h 0.13983 l -0.27967,-65.92615 z"
         fill="#6d7486"
         id="path28"
         style="stroke-width:1.09868" />
      <path
         d="m 431.30835,224.0001 -0.0855,-18.34217 119.34453,0.71473 0.17868,37.22038 h -0.26415 l -119.0959,-0.35736 z"
         fill="#4689d3"
         id="path30"
         style="stroke-width:1.09868" />
      <path
         d="m 550.7461,243.59304 0.11654,27.44722 h -0.21753 l -119.11924,-0.36513 h -0.0155 l -0.1243,-27.43945 119.09592,0.35736 z"
         fill="#5fa8ed"
         id="path32"
         style="stroke-width:1.09868" />
      <path
         d="m 550.86264,271.04026 0.17867,37.74867 v 0.18646 l -119.36783,-0.70697 -0.0855,-18.34217 -0.0777,-19.25112 h 0.0155 l 119.11923,0.36513 z"
         fill="#4689d3"
         id="path34"
         style="stroke-width:1.09868" />
      <path
         d="m 131.00484,203.93325 119.36782,0.70696 0.0855,18.34217 0.0777,19.23558 h -0.0156 l -119.33675,-0.34958 -0.17868,-37.76422 z"
         fill="#4689d3"
         id="path36"
         style="stroke-width:1.09868" />
      <path
         d="m 250.53582,242.21796 0.12429,27.455 -119.36006,-0.35737 -0.11653,-27.44721 119.33675,0.34958 z"
         fill="#5fa8ed"
         id="path38"
         style="stroke-width:1.09868" />
      <path
         d="m 250.7378,288.90854 0.0855,18.34217 -119.34452,-0.71473 -0.17869,-37.22039 119.36006,0.35737 z"
         fill="#4689d3"
         id="path40"
         style="stroke-width:1.09868" />
      <path
         d="m 311.13257,315.69541 -0.0374,-5.45215 -30.69613,-0.17247 -0.38067,0.008 0.0388,5.61685 a 63.258482,63.258482 0 0 0 78.76801,60.91528 63.202449,63.202449 0 0 1 -47.69274,-60.91528 z"
         fill="#9499aa"
         id="path42"
         style="stroke-width:1.09868" />
      <path
         d="m 311.09372,310.07856 0.38067,-0.008 h -0.38067 z"
         fill="#e75163"
         id="path44"
         style="stroke-width:1.09868" />
      <path
         d="m 279.30373,189.21135 h -0.1243 l 0.83903,120.86721 0.38067,-0.008 h 30.69459 l -0.83826,-120.6862 z"
         fill="#c6475c"
         id="path46"
         style="stroke-width:1.09868" />
      <path
         d="m 310.25546,189.38459 -7.8e-4,-0.17324 -0.32473,-45.92613 -31.07681,-0.17402 0.32629,46.10015 h 0.1243 z"
         fill="#9499aa"
         id="path48"
         style="stroke-width:1.09868" />
      <path
         d="m 287.77407,33.076055 -31.09313,-0.173244 a 88.133611,88.133611 0 0 0 68.01597,80.414999 87.442543,87.442543 0 0 0 33.23499,1.16532 c 0.63938,-0.1002 1.26942,-0.2284 1.90025,-0.34649 -1.3642,-0.24705 -2.72297,-0.51197 -4.06386,-0.82272 A 88.133611,88.133611 0 0 1 287.77407,33.076055 Z"
         fill="#9499aa"
         id="path50"
         style="stroke-width:1.09868" />
      <g
         fill="aqua"
         id="g84"
         transform="matrix(0.77688142,-0.77688142,0.77688142,0.77688142,-58.321177,261.25157)">
        <g transform="matrix(0.36457632,0.36457632,-0.36457632,0.36457632,256.91337,-147.12701)" style="transform-origin: 20% -5%;">
          <path
                  id="path52"
                  d="M 458.66602 807.38672 A 11.637181 11.637181 0 0 0 446.95117 819.18164 L 446.95117 901.10742 A 11.637181 11.637181 0 1 0 470.22266 901.10742 L 470.22266 819.18359 A 11.637181 11.637181 0 0 0 458.66602 807.38672 z M 585.64062 807.38672 A 11.637181 11.637181 0 0 0 574.21289 819.17969 L 574.20898 850.57812 A 11.637181 11.637181 0 1 0 597.48438 850.57812 L 597.48438 819.18164 A 11.637181 11.637181 0 0 0 585.64062 807.38672 z M 649.52148 821.62109 A 11.637181 11.637181 0 0 0 637.83594 833.09961 L 637.8418 833.10547 L 637.83594 888.66797 A 11.637181 11.637181 0 1 0 661.10742 888.66992 L 661.10742 833.09961 A 11.637181 11.637181 0 0 0 649.52148 821.62109 z M 522.13672 828.55664 A 11.637481 11.637481 0 0 0 510.57812 840.19531 L 510.58008 863.80664 A 11.637481 11.637481 0 0 0 533.85547 863.80664 L 533.85352 840.19336 A 11.637481 11.637481 0 0 0 522.13672 828.55664 z M 586.52539 892.45117 A 11.637481 11.637481 0 0 0 574.9668 904.08984 L 574.96094 904.0918 L 574.9668 950.50781 A 11.638167 11.638167 0 0 0 598.24414 950.50781 L 598.24219 904.08789 A 11.637481 11.637481 0 0 0 586.52539 892.45117 z M 523.05469 898.90625 A 11.637181 11.637181 0 0 0 511.33984 910.69922 L 511.33398 973.38867 A 11.637181 11.637181 0 0 0 522.96875 985.02734 A 11.637181 11.637181 0 0 0 534.60547 973.39062 L 534.61133 910.70117 A 11.637181 11.637181 0 0 0 523.05469 898.90625 z M 650.15234 923.93555 A 11.638167 11.638167 0 0 0 638.59375 935.57422 L 638.59375 969.90625 A 11.638167 11.638167 0 0 0 661.86914 969.90625 L 661.86914 935.57422 A 11.638167 11.638167 0 0 0 650.15234 923.93555 z M 459.3418 936.36914 A 11.637181 11.637181 0 0 0 447.70508 948.00586 L 447.70312 969.90625 A 11.637481 11.637481 0 0 0 470.97852 969.9082 L 470.97656 948.00586 A 11.637181 11.637181 0 0 0 459.3418 936.36914 z M 586.60156 986.10352 A 11.637181 11.637181 0 0 0 574.96484 997.74023 L 574.96289 1044.5059 A 11.637481 11.637481 0 0 0 598.23828 1044.5078 L 598.23828 997.74023 A 11.637181 11.637181 0 0 0 586.60156 986.10352 z M 650.25 1005.4062 A 11.637181 11.637181 0 0 0 638.59766 1017.1387 L 638.59375 1017.1367 L 638.59375 1039.0352 A 11.637181 11.637181 0 1 0 661.86719 1039.0371 L 661.87109 1017.1387 A 11.637181 11.637181 0 0 0 650.25 1005.4062 z M 459.25977 1005.4883 A 11.638167 11.638167 0 0 0 447.69922 1017.127 L 447.70703 1044.5098 A 11.637181 11.637181 0 0 0 467.57422 1052.7383 L 467.57031 1052.7344 A 11.610028 11.610028 0 0 0 470.97852 1044.5059 L 470.97656 1017.127 A 11.638167 11.638167 0 0 0 459.25977 1005.4883 z M 522.89453 1008.9824 A 11.637481 11.637481 0 0 0 511.33398 1020.6133 L 511.33203 1026.5918 A 11.637181 11.637181 0 1 0 534.60547 1026.5977 L 534.60938 1020.6211 A 11.637481 11.637481 0 0 0 522.89453 1008.9824 z M 523.04883 1060.9844 A 11.637181 11.637181 0 0 0 511.33398 1072.7793 L 511.33008 1072.7754 L 511.33203 1106.6719 A 11.637695 11.637695 0 0 0 534.60742 1106.6719 L 534.60547 1072.7793 A 11.637181 11.637181 0 0 0 523.04883 1060.9844 z "/>
        </g>
        <path
           d="m 264.282,201.521 -4.452,4.451 a 6,6 0 1 0 8.484,8.486 l 4.453,-4.451 a 6.0001546,6.0001546 0 1 0 -8.485,-8.486 z"
           id="path78" />
        <path
           d="M 246.4,219.407 214.9,250.9 a 6.0001546,6.0001546 0 0 0 8.485,8.486 l 31.494,-31.494 a 6,6 0 0 0 -8.484,-8.486 z"
           id="path80" />
        <path
           d="m 355.119,274.927 a 6.139,6.139 0 0 0 -4.263,-1.927 6.147,6.147 0 0 0 -4.264,1.92 l -7.487,7.626 -7.862,-7.926 46.967,-47.627 a 6,6 0 0 0 -0.006,-8.432 l -26,-26.3 10.92,-11.061 a 83.8,83.8 0 0 0 101.6,-8.747 6,6 0 0 0 0.23,-8.658 l -53.523,-54.127 17.6,-17.6 a 22.733,22.733 0 1 0 -8.1,-8.867 L 403,101.138 353.967,51.555 a 6,6 0 0 0 -8.751,0.232 86.144,86.144 0 0 0 -11,98.554 l -11.729,11.877 -25.183,-25.452 a 5.982,5.982 0 0 0 -4.266,-1.766 5.983,5.983 0 0 0 -4.268,1.771 l -46.88,47.535 -10.09,-10.206 7.572,-7.64 a 6,6 0 0 0 0.006,-8.442 L 121.8,38.913 A 6.124,6.124 0 0 0 117.54,37 h -0.005 a 6.137,6.137 0 0 0 -4.262,1.906 L 47.525,105.3 a 6.04,6.04 0 0 0 0,8.474 l 117.573,119.21 a 6.235,6.235 0 0 0 4.257,2.016 h 0.005 a 6.224,6.224 0 0 0 4.262,-1.991 l 7.487,-7.661 10.182,10.259 -12.818,13 a 63.739,63.739 0 0 0 0,89.327 63.524,63.524 0 0 0 90.343,-0.009 l 11.843,-12.009 7.754,7.842 -7.571,7.639 a 6,6 0 0 0 -0.006,8.442 l 117.572,119.18 a 6.2,6.2 0 0 0 4.263,1.981 6.21,6.21 0 0 0 4.262,-1.977 l 65.748,-66.43 a 6.15,6.15 0 0 0 0,-8.564 z M 433.586,65.26 a 10.741,10.741 0 0 1 15.189,15.19 10.740245,10.740245 0 1 1 -15.188,-15.19 z m -82.741,222.558 67.917,68.73 -15.416,15.56 -68.122,-68.53 z m 44.055,92.815 -9.134,9.22 -68.127,-68.535 9.136,-9.218 z M 350.129,64.74 451.839,167.6 a 71.93,71.93 0 0 1 -94.957,-6.746 74.105,74.105 0 0 1 -6.753,-96.114 z m -9.23,95.914 a 86.018,86.018 0 0 0 7.45,8.634 c 1.63,1.649 3.325,3.194 5.052,4.681 l -9.639,9.762 -12.835,-12.979 z m -114.232,1.579 -15.646,15.786 -68.129,-68.537 15.843,-15.992 z m -24.095,24.308 -9.135,9.217 -68.125,-68.533 9.133,-9.219 z M 60.229,109.6 l 57.3,-57.807 32.771,33.161 -57.286,57.82 z m 109.138,110.441 -67.918,-68.73 15.417,-15.561 68.122,68.531 z m 20.191,-3.31 33.792,-34.1 10.107,10.219 -33.716,34.187 z m 34.084,128.054 a 51.154,51.154 0 0 1 -36.636,-15.3 51.7,51.7 0 0 1 -0.649,-71.765 l 72.407,73.223 a 51.12,51.12 0 0 1 -35.122,13.842 z m 43.587,-22.344 -72.46,-73.278 68.811,-69.778 5.611,5.675 a 6.0002486,6.0002486 0 0 0 8.533,-8.438 l -5.717,-5.782 21.037,-21.332 72.456,73.277 -21.036,21.332 -38.614,-39.052 a 6,6 0 0 0 -8.509,-0.024 6,6 0 0 0 -0.025,8.462 l 38.723,39.16 z m 55.571,-39.259 7.856,7.95 -33.793,34.1 -7.774,-7.861 z m -29.253,62.443 15.646,-15.785 68.129,68.537 -15.843,15.992 z m 109.136,110.443 -32.771,-33.163 57.288,-57.821 32.785,33.178 z"
           id="path82" />
      </g>
    </g>
  </g>
</svg>
